<svg xmlns="http://www.w3.org/2000/svg" xmlns:xlink="http://www.w3.org/1999/xlink" width="800" zoomAndPan="magnify" viewBox="0 0 600 225" height="300" preserveAspectRatio="xMidYMid meet" version="1.0"><defs><g/><clipPath id="a6a25032e5"><path d="M 78 121 L 194.242188 121 L 194.242188 199.824219 L 78 199.824219 Z M 78 121 " clip-rule="nonzero"/></clipPath><clipPath id="0e8b3862a1"><path d="M 78 25.074219 L 194.242188 25.074219 L 194.242188 103 L 78 103 Z M 78 25.074219 " clip-rule="nonzero"/></clipPath><clipPath id="0451be80de"><path d="M 20.242188 57 L 97 57 L 97 168 L 20.242188 168 Z M 20.242188 57 " clip-rule="nonzero"/></clipPath></defs><g clip-path="url(#a6a25032e5)"><path fill="#29aae1" d="M 78.902344 194.96875 C 80.445312 195.503906 82 195.996094 83.570312 196.441406 C 85.140625 196.890625 86.722656 197.292969 88.3125 197.652344 C 89.90625 198.011719 91.507812 198.328125 93.117188 198.597656 C 94.726562 198.867188 96.34375 199.089844 97.96875 199.269531 C 99.589844 199.445312 101.214844 199.578125 102.847656 199.667969 C 104.476562 199.753906 106.109375 199.796875 107.742188 199.789062 C 109.375 199.785156 111.003906 199.734375 112.632812 199.640625 C 114.265625 199.542969 115.890625 199.402344 117.511719 199.214844 C 119.132812 199.027344 120.75 198.792969 122.355469 198.515625 C 123.964844 198.238281 125.566406 197.914062 127.15625 197.546875 C 128.746094 197.179688 130.324219 196.765625 131.894531 196.308594 C 133.460938 195.855469 135.015625 195.355469 136.554688 194.808594 C 138.09375 194.265625 139.617188 193.679688 141.121094 193.050781 C 142.628906 192.421875 144.117188 191.75 145.585938 191.035156 C 147.054688 190.324219 148.5 189.570312 149.929688 188.773438 C 151.355469 187.980469 152.757812 187.148438 154.136719 186.273438 C 155.519531 185.402344 156.871094 184.488281 158.199219 183.539062 C 159.53125 182.59375 160.832031 181.605469 162.105469 180.582031 C 163.378906 179.5625 164.621094 178.503906 165.835938 177.414062 C 167.050781 176.320312 168.230469 175.195312 169.382812 174.035156 C 170.535156 172.878906 171.652344 171.6875 172.734375 170.46875 C 173.820312 169.246094 174.871094 167.996094 175.882812 166.714844 C 176.898438 165.433594 177.875 164.128906 178.816406 162.792969 C 179.757812 161.457031 180.660156 160.097656 181.523438 158.710938 C 182.390625 157.324219 183.214844 155.914062 184 154.484375 C 184.785156 153.050781 185.53125 151.597656 186.234375 150.125 C 186.9375 148.652344 187.601562 147.160156 188.21875 145.648438 C 188.839844 144.136719 189.417969 142.609375 189.953125 141.066406 C 190.488281 139.519531 190.976562 137.964844 191.425781 136.394531 C 191.871094 134.820312 192.273438 133.238281 192.632812 131.644531 C 192.992188 130.050781 193.304688 128.449219 193.574219 126.839844 C 193.84375 125.226562 194.066406 123.609375 194.242188 121.984375 Z M 78.902344 194.96875 " fill-opacity="1" fill-rule="nonzero"/></g><g clip-path="url(#0e8b3862a1)"><path fill="#2696c7" d="M 194.242188 102.914062 C 194.066406 101.289062 193.84375 99.671875 193.574219 98.0625 C 193.304688 96.449219 192.992188 94.847656 192.632812 93.253906 C 192.273438 91.660156 191.871094 90.078125 191.425781 88.507812 C 190.976562 86.933594 190.488281 85.378906 189.953125 83.835938 C 189.417969 82.289062 188.839844 80.761719 188.21875 79.253906 C 187.601562 77.742188 186.9375 76.25 186.234375 74.773438 C 185.53125 73.300781 184.785156 71.847656 184 70.414062 C 183.214844 68.984375 182.390625 67.574219 181.523438 66.1875 C 180.660156 64.804688 179.757812 63.441406 178.816406 62.105469 C 177.875 60.773438 176.898438 59.464844 175.882812 58.183594 C 174.871094 56.902344 173.820312 55.652344 172.734375 54.433594 C 171.652344 53.210938 170.535156 52.019531 169.382812 50.863281 C 168.230469 49.703125 167.050781 48.578125 165.835938 47.488281 C 164.621094 46.394531 163.378906 45.335938 162.105469 44.316406 C 160.832031 43.292969 159.53125 42.308594 158.199219 41.359375 C 156.871094 40.410156 155.519531 39.496094 154.136719 38.625 C 152.757812 37.75 151.355469 36.917969 149.929688 36.125 C 148.5 35.328125 147.054688 34.574219 145.585938 33.863281 C 144.117188 33.148438 142.628906 32.480469 141.121094 31.847656 C 139.617188 31.21875 138.09375 30.632812 136.554688 30.089844 C 135.015625 29.546875 133.460938 29.046875 131.894531 28.589844 C 130.324219 28.132812 128.746094 27.71875 127.15625 27.351562 C 125.566406 26.984375 123.964844 26.660156 122.355469 26.382812 C 120.75 26.105469 119.132812 25.871094 117.511719 25.683594 C 115.890625 25.496094 114.265625 25.355469 112.632812 25.257812 C 111.003906 25.164062 109.375 25.113281 107.742188 25.109375 C 106.109375 25.105469 104.476562 25.144531 102.847656 25.234375 C 101.214844 25.320312 99.589844 25.453125 97.96875 25.632812 C 96.34375 25.808594 94.726562 26.035156 93.117188 26.300781 C 91.507812 26.570312 89.90625 26.886719 88.3125 27.246094 C 86.722656 27.605469 85.140625 28.007812 83.570312 28.457031 C 82 28.90625 80.445312 29.394531 78.902344 29.929688 Z M 194.242188 102.914062 " fill-opacity="1" fill-rule="nonzero"/></g><path fill="#1b639d" d="M 77.015625 30.613281 C 71.183594 32.792969 65.648438 35.566406 60.410156 38.929688 C 55.167969 42.296875 50.34375 46.175781 45.933594 50.574219 L 143.703125 112.449219 L 45.96875 174.324219 C 50.375 178.71875 55.195312 182.601562 60.425781 185.964844 C 65.660156 189.328125 71.191406 192.101562 77.015625 194.285156 L 162.269531 112.449219 Z M 77.015625 30.613281 " fill-opacity="1" fill-rule="nonzero"/><g clip-path="url(#0451be80de)"><path fill="#2a3d8f" d="M 39.582031 57.648438 C 38.03125 59.570312 36.566406 61.554688 35.1875 63.601562 C 33.804688 65.648438 32.515625 67.753906 31.3125 69.910156 C 30.109375 72.066406 29 74.269531 27.984375 76.523438 C 26.96875 78.773438 26.050781 81.0625 25.230469 83.390625 C 24.40625 85.722656 23.6875 88.082031 23.066406 90.472656 C 22.445312 92.863281 21.925781 95.273438 21.507812 97.710938 C 21.089844 100.144531 20.777344 102.59375 20.570312 105.054688 C 20.359375 107.515625 20.257812 109.980469 20.257812 112.449219 C 20.257812 114.917969 20.359375 117.386719 20.570312 119.847656 C 20.777344 122.308594 21.089844 124.753906 21.507812 127.191406 C 21.925781 129.625 22.445312 132.035156 23.066406 134.425781 C 23.6875 136.816406 24.40625 139.175781 25.230469 141.507812 C 26.050781 143.835938 26.96875 146.125 27.984375 148.378906 C 29 150.628906 30.109375 152.832031 31.3125 154.988281 C 32.515625 157.148438 33.804688 159.25 35.1875 161.296875 C 36.566406 163.34375 38.03125 165.328125 39.582031 167.253906 L 96.667969 112.449219 Z M 39.582031 57.648438 " fill-opacity="1" fill-rule="nonzero"/></g><g fill="#2696c7" fill-opacity="1"><g transform="translate(226.491816, 65.620632)"><g><path d="M 9.953125 -28.671875 L 25.703125 -28.671875 C 27.160156 -28.671875 28.238281 -27.878906 28.9375 -26.296875 C 28.976562 -26.097656 29 -25.929688 29 -25.796875 L 29 -24.71875 C 29 -23.59375 28.289062 -22.632812 26.875 -21.84375 C 26.3125 -21.65625 25.859375 -21.5625 25.515625 -21.5625 L 7.234375 -21.5625 L 7.234375 -17.953125 L 18.109375 -17.953125 C 22.523438 -17.953125 25.8125 -16.5625 27.96875 -13.78125 C 28.65625 -12.726562 29 -11.84375 29 -11.125 L 29 -6.84375 C 29 -5.175781 27.878906 -3.535156 25.640625 -1.921875 C 23.492188 -0.640625 21.382812 0 19.3125 0 L 3.140625 0 C 2.046875 0 1.09375 -0.617188 0.28125 -1.859375 C 0.09375 -2.253906 0 -2.613281 0 -2.9375 L 0 -3.71875 C 0 -5.175781 0.851562 -6.25 2.5625 -6.9375 C 2.945312 -7.0625 3.382812 -7.125 3.875 -7.125 L 21.8125 -7.125 L 21.8125 -10.71875 L 10.3125 -10.71875 C 7.113281 -10.71875 4.363281 -11.71875 2.0625 -13.71875 C 0.6875 -15.09375 0 -16.484375 0 -17.890625 L 0 -21.515625 C 0 -23.859375 1.613281 -25.875 4.84375 -27.5625 C 6.71875 -28.300781 8.421875 -28.671875 9.953125 -28.671875 Z M 9.953125 -28.671875 "/></g></g></g><g fill="#2696c7" fill-opacity="1"><g transform="translate(257.48058, 65.620632)"><g><path d="M 3.265625 -28.671875 L 3.8125 -28.671875 C 4.757812 -28.671875 5.804688 -28.03125 6.953125 -26.75 C 11.941406 -21.832031 14.476562 -19.367188 14.5625 -19.359375 C 20.445312 -25.265625 23.492188 -28.21875 23.703125 -28.21875 C 24.253906 -28.519531 24.742188 -28.671875 25.171875 -28.671875 L 25.734375 -28.671875 C 27.003906 -28.671875 28.019531 -27.9375 28.78125 -26.46875 C 28.925781 -26.082031 29 -25.742188 29 -25.453125 L 29 -24.78125 C 29 -23.757812 28.125 -22.519531 26.375 -21.0625 L 18.09375 -12.875 L 18.09375 -3.34375 C 18.09375 -1.875 17.222656 -0.78125 15.484375 -0.0625 L 14.890625 0 L 14.09375 0 C 12.925781 0 11.941406 -0.734375 11.140625 -2.203125 C 10.972656 -2.671875 10.890625 -3.0625 10.890625 -3.375 L 10.890625 -12.875 C 3.992188 -19.664062 0.535156 -23.109375 0.515625 -23.203125 C 0.171875 -23.847656 0 -24.390625 0 -24.828125 L 0 -25.328125 C 0 -26.648438 0.738281 -27.691406 2.21875 -28.453125 C 2.601562 -28.597656 2.953125 -28.671875 3.265625 -28.671875 Z M 3.265625 -28.671875 "/></g></g></g><g fill="#2696c7" fill-opacity="1"><g transform="translate(288.469344, 65.620632)"><g><path d="M 3.359375 -28.671875 L 3.875 -28.671875 C 4.90625 -28.671875 5.953125 -28.070312 7.015625 -26.875 C 13.734375 -20.257812 18.660156 -15.441406 21.796875 -12.421875 L 21.796875 -24.828125 C 21.796875 -26.617188 22.613281 -27.847656 24.25 -28.515625 C 24.613281 -28.617188 24.941406 -28.671875 25.234375 -28.671875 L 25.734375 -28.671875 C 26.960938 -28.671875 27.976562 -27.957031 28.78125 -26.53125 C 28.925781 -26.09375 29 -25.753906 29 -25.515625 L 29 -3.09375 C 29 -1.988281 28.3125 -1.050781 26.9375 -0.28125 C 26.550781 -0.09375 26.191406 0 25.859375 0 L 25.0625 0 C 24.03125 0 22.753906 -0.882812 21.234375 -2.65625 L 7.203125 -16.375 L 7.203125 -3.4375 C 7.203125 -1.875 6.300781 -0.75 4.5 -0.0625 C 4.300781 -0.0195312 4.132812 0 4 0 L 3.203125 0 C 1.984375 0 0.988281 -0.734375 0.21875 -2.203125 C 0.0703125 -2.585938 0 -2.925781 0 -3.21875 L 0 -25.328125 C 0 -26.785156 0.851562 -27.863281 2.5625 -28.5625 C 2.851562 -28.632812 3.117188 -28.671875 3.359375 -28.671875 Z M 3.359375 -28.671875 "/></g></g></g><g fill="#2696c7" fill-opacity="1"><g transform="translate(319.458107, 65.620632)"><g><path d="M 14.28125 -28.671875 L 25.734375 -28.671875 C 26.953125 -28.671875 27.96875 -27.957031 28.78125 -26.53125 C 28.925781 -26.09375 29 -25.753906 29 -25.515625 L 29 -24.71875 C 29 -23.570312 28.273438 -22.613281 26.828125 -21.84375 C 26.367188 -21.65625 25.929688 -21.5625 25.515625 -21.5625 L 15.875 -21.5625 C 12.0625 -21.5625 9.316406 -19.957031 7.640625 -16.75 C 7.347656 -15.875 7.203125 -15.03125 7.203125 -14.21875 C 7.203125 -11.613281 8.679688 -9.523438 11.640625 -7.953125 C 12.941406 -7.398438 14.203125 -7.125 15.421875 -7.125 L 25.171875 -7.125 C 27.035156 -7.125 28.289062 -6.234375 28.9375 -4.453125 L 29 -3.90625 L 29 -3.09375 C 29 -1.988281 28.3125 -1.050781 26.9375 -0.28125 C 26.550781 -0.09375 26.191406 0 25.859375 0 L 13.921875 0 C 10.785156 0 7.703125 -1.257812 4.671875 -3.78125 C 2.953125 -5.53125 1.910156 -6.90625 1.546875 -7.90625 C 0.515625 -9.9375 0 -11.894531 0 -13.78125 L 0 -14.84375 C 0 -18.25 1.425781 -21.46875 4.28125 -24.5 C 7.34375 -27.28125 10.675781 -28.671875 14.28125 -28.671875 Z M 14.28125 -28.671875 "/></g></g></g><g fill="#2696c7" fill-opacity="1"><g transform="translate(350.446871, 65.620632)"><g/></g></g><g fill="#2696c7" fill-opacity="1"><g transform="translate(360.603189, 65.620632)"><g><path d="M 3.359375 -28.671875 L 20.4375 -28.671875 C 22.875 -28.671875 25.117188 -27.523438 27.171875 -25.234375 C 28.390625 -23.484375 29 -21.84375 29 -20.3125 L 29 -19.140625 C 29 -16.804688 27.835938 -14.617188 25.515625 -12.578125 C 24.097656 -11.671875 22.972656 -11.144531 22.140625 -11 L 22.140625 -10.953125 C 25.097656 -8.328125 27.039062 -6.503906 27.96875 -5.484375 C 28.382812 -4.785156 28.59375 -4.125 28.59375 -3.5 C 28.59375 -1.988281 27.753906 -0.863281 26.078125 -0.125 C 25.742188 -0.0390625 25.492188 0 25.328125 0 L 24.53125 0 C 23.601562 0 22.375 -0.828125 20.84375 -2.484375 C 20.300781 -2.921875 17.273438 -5.6875 11.765625 -10.78125 L 7.203125 -10.78125 L 7.203125 -3.4375 C 7.203125 -1.875 6.300781 -0.75 4.5 -0.0625 C 4.300781 -0.0195312 4.132812 0 4 0 L 3.203125 0 C 1.984375 0 0.988281 -0.734375 0.21875 -2.203125 C 0.0703125 -2.585938 0 -2.925781 0 -3.21875 L 0 -25.328125 C 0 -26.785156 0.851562 -27.863281 2.5625 -28.5625 C 2.851562 -28.632812 3.117188 -28.671875 3.359375 -28.671875 Z M 7.203125 -21.5625 L 7.203125 -17.84375 L 21.796875 -17.84375 L 21.796875 -21.5625 Z M 7.203125 -21.5625 "/></g></g></g><g fill="#2696c7" fill-opacity="1"><g transform="translate(391.591952, 65.620632)"><g><path d="M 3.359375 -28.671875 L 25.734375 -28.671875 C 26.960938 -28.671875 27.976562 -27.957031 28.78125 -26.53125 C 28.925781 -26.09375 29 -25.753906 29 -25.515625 L 29 -24.71875 C 29 -23.570312 28.273438 -22.613281 26.828125 -21.84375 C 26.367188 -21.65625 25.929688 -21.5625 25.515625 -21.5625 L 7.203125 -21.5625 L 7.203125 -17.890625 L 21.359375 -17.890625 C 23.160156 -17.890625 24.375 -17.175781 25 -15.75 C 25.1875 -15.34375 25.28125 -14.96875 25.28125 -14.625 L 25.28125 -14.125 C 25.28125 -12.664062 24.425781 -11.585938 22.71875 -10.890625 C 22.4375 -10.816406 22.171875 -10.78125 21.921875 -10.78125 L 7.203125 -10.78125 L 7.203125 -7.125 L 25.109375 -7.125 C 27.222656 -7.125 28.519531 -6.101562 29 -4.0625 L 29 -3.09375 C 29 -1.988281 28.3125 -1.050781 26.9375 -0.28125 C 26.550781 -0.09375 26.191406 0 25.859375 0 L 3.203125 0 C 1.984375 0 0.988281 -0.734375 0.21875 -2.203125 C 0.0703125 -2.585938 0 -2.925781 0 -3.21875 L 0 -25.328125 C 0 -26.785156 0.851562 -27.863281 2.5625 -28.5625 C 2.851562 -28.632812 3.117188 -28.671875 3.359375 -28.671875 Z M 3.359375 -28.671875 "/></g></g></g><g fill="#2696c7" fill-opacity="1"><g transform="translate(422.580716, 65.620632)"><g><path d="M 9.984375 -28.671875 L 18.921875 -28.671875 C 22.460938 -28.671875 25.421875 -27.390625 27.796875 -24.828125 C 28.597656 -23.617188 29 -22.609375 29 -21.796875 L 29 -6.875 C 29 -5.40625 28.066406 -3.882812 26.203125 -2.3125 C 23.898438 -0.769531 21.410156 0 18.734375 0 L 10.359375 0 C 7.117188 0 4.351562 -0.992188 2.0625 -2.984375 C 0.6875 -4.359375 0 -5.75 0 -7.15625 L 0 -21.515625 C 0 -23.878906 1.613281 -25.894531 4.84375 -27.5625 C 6.71875 -28.300781 8.429688 -28.671875 9.984375 -28.671875 Z M 6.953125 -21.578125 L 6.953125 -7.09375 L 16.703125 -7.09375 C 15.285156 -8.375 14.578125 -9.367188 14.578125 -10.078125 C 14.523438 -10.078125 14.492188 -10.320312 14.484375 -10.8125 C 14.484375 -12.289062 15.273438 -13.398438 16.859375 -14.140625 C 17.210938 -14.253906 17.539062 -14.3125 17.84375 -14.3125 L 18.34375 -14.3125 C 19.351562 -14.3125 20.507812 -13.539062 21.8125 -12 L 22.03125 -11.84375 L 22.03125 -21.578125 Z M 6.953125 -21.578125 "/></g></g></g><g fill="#2696c7" fill-opacity="1"><g transform="translate(453.56948, 65.620632)"><g><path d="M 3.359375 -28.671875 L 3.875 -28.671875 C 5.0625 -28.671875 6.054688 -27.992188 6.859375 -26.640625 C 7.085938 -26.191406 7.203125 -25.664062 7.203125 -25.0625 L 7.203125 -15.75 C 7.203125 -12.175781 8.628906 -9.539062 11.484375 -7.84375 C 12.453125 -7.363281 13.363281 -7.125 14.21875 -7.125 L 14.71875 -7.125 C 16.976562 -7.125 18.90625 -8.304688 20.5 -10.671875 C 21.363281 -12.128906 21.796875 -13.671875 21.796875 -15.296875 L 21.796875 -24.671875 C 21.796875 -26.523438 22.5625 -27.785156 24.09375 -28.453125 C 24.519531 -28.597656 24.898438 -28.671875 25.234375 -28.671875 L 25.734375 -28.671875 C 26.960938 -28.671875 27.976562 -27.957031 28.78125 -26.53125 C 28.925781 -26.09375 29 -25.753906 29 -25.515625 L 29 -13.65625 C 29 -10.90625 27.878906 -8.046875 25.640625 -5.078125 C 23.554688 -2.742188 21.039062 -1.1875 18.09375 -0.40625 C 17.03125 -0.132812 16.078125 0 15.234375 0 L 13.703125 0 C 10.867188 0 7.972656 -1.144531 5.015625 -3.4375 C 2.941406 -5.519531 1.742188 -7.117188 1.421875 -8.234375 C 0.472656 -10.191406 0 -12.09375 0 -13.9375 L 0 -25.328125 C 0 -26.785156 0.851562 -27.863281 2.5625 -28.5625 C 2.851562 -28.632812 3.117188 -28.671875 3.359375 -28.671875 Z M 3.359375 -28.671875 "/></g></g></g><g fill="#2696c7" fill-opacity="1"><g transform="translate(484.558244, 65.620632)"><g><path d="M 3.359375 -28.671875 L 25.734375 -28.671875 C 26.960938 -28.671875 27.976562 -27.957031 28.78125 -26.53125 C 28.925781 -26.09375 29 -25.753906 29 -25.515625 L 29 -24.71875 C 29 -23.570312 28.273438 -22.613281 26.828125 -21.84375 C 26.367188 -21.65625 25.929688 -21.5625 25.515625 -21.5625 L 7.203125 -21.5625 L 7.203125 -17.890625 L 21.359375 -17.890625 C 23.160156 -17.890625 24.375 -17.175781 25 -15.75 C 25.1875 -15.34375 25.28125 -14.96875 25.28125 -14.625 L 25.28125 -14.125 C 25.28125 -12.664062 24.425781 -11.585938 22.71875 -10.890625 C 22.4375 -10.816406 22.171875 -10.78125 21.921875 -10.78125 L 7.203125 -10.78125 L 7.203125 -7.125 L 25.109375 -7.125 C 27.222656 -7.125 28.519531 -6.101562 29 -4.0625 L 29 -3.09375 C 29 -1.988281 28.3125 -1.050781 26.9375 -0.28125 C 26.550781 -0.09375 26.191406 0 25.859375 0 L 3.203125 0 C 1.984375 0 0.988281 -0.734375 0.21875 -2.203125 C 0.0703125 -2.585938 0 -2.925781 0 -3.21875 L 0 -25.328125 C 0 -26.785156 0.851562 -27.863281 2.5625 -28.5625 C 2.851562 -28.632812 3.117188 -28.671875 3.359375 -28.671875 Z M 3.359375 -28.671875 "/></g></g></g><g fill="#2696c7" fill-opacity="1"><g transform="translate(515.547007, 65.620632)"><g><path d="M 9.953125 -28.671875 L 25.703125 -28.671875 C 27.160156 -28.671875 28.238281 -27.878906 28.9375 -26.296875 C 28.976562 -26.097656 29 -25.929688 29 -25.796875 L 29 -24.71875 C 29 -23.59375 28.289062 -22.632812 26.875 -21.84375 C 26.3125 -21.65625 25.859375 -21.5625 25.515625 -21.5625 L 7.234375 -21.5625 L 7.234375 -17.953125 L 18.109375 -17.953125 C 22.523438 -17.953125 25.8125 -16.5625 27.96875 -13.78125 C 28.65625 -12.726562 29 -11.84375 29 -11.125 L 29 -6.84375 C 29 -5.175781 27.878906 -3.535156 25.640625 -1.921875 C 23.492188 -0.640625 21.382812 0 19.3125 0 L 3.140625 0 C 2.046875 0 1.09375 -0.617188 0.28125 -1.859375 C 0.09375 -2.253906 0 -2.613281 0 -2.9375 L 0 -3.71875 C 0 -5.175781 0.851562 -6.25 2.5625 -6.9375 C 2.945312 -7.0625 3.382812 -7.125 3.875 -7.125 L 21.8125 -7.125 L 21.8125 -10.71875 L 10.3125 -10.71875 C 7.113281 -10.71875 4.363281 -11.71875 2.0625 -13.71875 C 0.6875 -15.09375 0 -16.484375 0 -17.890625 L 0 -21.515625 C 0 -23.859375 1.613281 -25.875 4.84375 -27.5625 C 6.71875 -28.300781 8.421875 -28.671875 9.953125 -28.671875 Z M 9.953125 -28.671875 "/></g></g></g><g fill="#2696c7" fill-opacity="1"><g transform="translate(546.535771, 65.620632)"><g><path d="M 3.359375 -28.671875 L 25.734375 -28.671875 C 26.960938 -28.671875 27.976562 -27.957031 28.78125 -26.53125 C 28.925781 -26.09375 29 -25.753906 29 -25.515625 L 29 -24.71875 C 29 -23.570312 28.273438 -22.613281 26.828125 -21.84375 C 26.367188 -21.65625 25.929688 -21.5625 25.515625 -21.5625 L 18.09375 -21.5625 L 18.09375 -3.34375 C 18.09375 -1.863281 17.222656 -0.769531 15.484375 -0.0625 L 14.890625 0 L 14.09375 0 C 12.9375 0 11.960938 -0.710938 11.171875 -2.140625 C 10.984375 -2.609375 10.890625 -3.039062 10.890625 -3.4375 L 10.890625 -21.5625 L 3.65625 -21.5625 C 1.96875 -21.5625 0.789062 -22.40625 0.125 -24.09375 C 0.0390625 -24.4375 0 -24.679688 0 -24.828125 L 0 -25.328125 C 0 -26.785156 0.851562 -27.863281 2.5625 -28.5625 C 2.851562 -28.632812 3.117188 -28.671875 3.359375 -28.671875 Z M 3.359375 -28.671875 "/></g></g></g><g fill="#2696c7" fill-opacity="1"><g transform="translate(226.491816, 157.751146)"><g><path d="M 40.328125 -80.984375 L 72.6875 -80.984375 C 76.101562 -80.984375 78.960938 -78.96875 81.265625 -74.9375 C 81.679688 -73.695312 81.890625 -72.738281 81.890625 -72.0625 L 81.890625 -69.796875 C 81.890625 -66.554688 79.851562 -63.847656 75.78125 -61.671875 C 74.46875 -61.140625 73.226562 -60.875 72.0625 -60.875 L 44.84375 -60.875 C 34.070312 -60.875 26.316406 -56.359375 21.578125 -47.328125 C 20.742188 -44.835938 20.328125 -42.445312 20.328125 -40.15625 C 20.328125 -32.8125 24.503906 -26.914062 32.859375 -22.46875 C 36.554688 -20.894531 40.117188 -20.109375 43.546875 -20.109375 L 71.09375 -20.109375 C 76.363281 -20.109375 79.90625 -17.601562 81.71875 -12.59375 L 81.890625 -11.015625 L 81.890625 -8.75 C 81.890625 -5.625 79.945312 -2.972656 76.0625 -0.796875 C 74.976562 -0.265625 73.960938 0 73.015625 0 L 39.3125 0 C 30.457031 0 21.757812 -3.554688 13.21875 -10.671875 C 8.351562 -15.609375 5.394531 -19.488281 4.34375 -22.3125 C 1.445312 -28.070312 0 -33.601562 0 -38.90625 L 0 -41.90625 C 0 -51.539062 4.023438 -60.628906 12.078125 -69.171875 C 20.742188 -77.046875 30.160156 -80.984375 40.328125 -80.984375 Z M 40.328125 -80.984375 "/></g></g><g transform="translate(314.018796, 157.751146)"><g><path d="M 9.484375 -80.984375 L 10.953125 -80.984375 C 14.304688 -80.984375 17.113281 -79.0625 19.375 -75.21875 C 20.007812 -73.976562 20.328125 -72.492188 20.328125 -70.765625 L 20.328125 -44.5 C 20.328125 -34.40625 24.359375 -26.953125 32.421875 -22.140625 C 35.160156 -20.785156 37.738281 -20.109375 40.15625 -20.109375 L 41.5625 -20.109375 C 47.96875 -20.109375 53.410156 -23.457031 57.890625 -30.15625 C 60.335938 -34.257812 61.5625 -38.609375 61.5625 -43.203125 L 61.5625 -69.6875 C 61.5625 -74.914062 63.722656 -78.472656 68.046875 -80.359375 C 69.253906 -80.773438 70.328125 -80.984375 71.265625 -80.984375 L 72.6875 -80.984375 C 76.144531 -80.984375 79.003906 -78.96875 81.265625 -74.9375 C 81.679688 -73.695312 81.890625 -72.738281 81.890625 -72.0625 L 81.890625 -38.578125 C 81.890625 -30.816406 78.722656 -22.738281 72.390625 -14.34375 C 66.523438 -7.757812 59.429688 -3.351562 51.109375 -1.125 C 48.097656 -0.375 45.40625 0 43.03125 0 L 38.6875 0 C 30.707031 0 22.535156 -3.238281 14.171875 -9.71875 C 8.296875 -15.582031 4.910156 -20.097656 4.015625 -23.265625 C 1.335938 -28.796875 0 -34.160156 0 -39.359375 L 0 -71.546875 C 0 -75.648438 2.410156 -78.679688 7.234375 -80.640625 C 8.054688 -80.867188 8.804688 -80.984375 9.484375 -80.984375 Z M 9.484375 -80.984375 "/></g></g><g transform="translate(401.545775, 157.751146)"><g><path d="M 9.484375 -80.984375 L 57.71875 -80.984375 C 64.601562 -80.984375 70.945312 -77.742188 76.75 -71.265625 C 80.175781 -66.335938 81.890625 -61.707031 81.890625 -57.375 L 81.890625 -54.046875 C 81.890625 -47.453125 78.613281 -41.273438 72.0625 -35.515625 C 68.070312 -32.960938 64.890625 -31.476562 62.515625 -31.0625 L 62.515625 -30.953125 C 70.867188 -23.535156 76.363281 -18.375 79 -15.46875 C 80.164062 -13.507812 80.75 -11.644531 80.75 -9.875 C 80.75 -5.625 78.378906 -2.445312 73.640625 -0.34375 C 72.703125 -0.113281 72.003906 0 71.546875 0 L 69.296875 0 C 66.660156 0 63.175781 -2.332031 58.84375 -7 C 57.332031 -8.238281 48.785156 -16.050781 33.203125 -30.4375 L 20.328125 -30.4375 L 20.328125 -9.71875 C 20.328125 -5.3125 17.785156 -2.128906 12.703125 -0.171875 C 12.140625 -0.0546875 11.671875 0 11.296875 0 L 9.03125 0 C 5.601562 0 2.800781 -2.070312 0.625 -6.21875 C 0.207031 -7.300781 0 -8.257812 0 -9.09375 L 0 -71.546875 C 0 -75.648438 2.410156 -78.679688 7.234375 -80.640625 C 8.054688 -80.867188 8.804688 -80.984375 9.484375 -80.984375 Z M 20.328125 -60.875 L 20.328125 -50.375 L 61.5625 -50.375 L 61.5625 -60.875 Z M 20.328125 -60.875 "/></g></g><g transform="translate(489.072754, 157.751146)"><g><path d="M 9.484375 -80.984375 L 10.953125 -80.984375 C 14.304688 -80.984375 17.113281 -79.0625 19.375 -75.21875 C 20.007812 -73.976562 20.328125 -72.492188 20.328125 -70.765625 L 20.328125 -20.109375 L 70.9375 -20.109375 C 76.882812 -20.109375 80.535156 -17.226562 81.890625 -11.46875 L 81.890625 -8.75 C 81.890625 -5.625 79.945312 -2.972656 76.0625 -0.796875 C 74.976562 -0.265625 73.960938 0 73.015625 0 L 9.03125 0 C 5.601562 0 2.800781 -2.070312 0.625 -6.21875 C 0.207031 -7.300781 0 -8.257812 0 -9.09375 L 0 -71.546875 C 0 -75.648438 2.410156 -78.679688 7.234375 -80.640625 C 8.054688 -80.867188 8.804688 -80.984375 9.484375 -80.984375 Z M 9.484375 -80.984375 "/></g></g></g><g fill="#2696c7" fill-opacity="1"><g transform="translate(226.491816, 187.156713)"><g><path d="M 4.484375 0.203125 C 3.722656 0.203125 3.019531 0.0625 2.375 -0.21875 C 1.726562 -0.507812 1.164062 -0.90625 0.6875 -1.40625 L 1.515625 -2.359375 C 1.898438 -1.953125 2.351562 -1.625 2.875 -1.375 C 3.394531 -1.125 3.9375 -1 4.5 -1 C 5.21875 -1 5.773438 -1.160156 6.171875 -1.484375 C 6.566406 -1.816406 6.765625 -2.242188 6.765625 -2.765625 C 6.765625 -3.046875 6.71875 -3.28125 6.625 -3.46875 C 6.53125 -3.664062 6.398438 -3.832031 6.234375 -3.96875 C 6.078125 -4.101562 5.890625 -4.222656 5.671875 -4.328125 C 5.453125 -4.441406 5.21875 -4.5625 4.96875 -4.6875 L 3.40625 -5.359375 C 3.15625 -5.460938 2.894531 -5.59375 2.625 -5.75 C 2.363281 -5.90625 2.128906 -6.09375 1.921875 -6.3125 C 1.710938 -6.53125 1.539062 -6.789062 1.40625 -7.09375 C 1.28125 -7.394531 1.21875 -7.742188 1.21875 -8.140625 C 1.21875 -8.546875 1.300781 -8.925781 1.46875 -9.28125 C 1.644531 -9.632812 1.882812 -9.9375 2.1875 -10.1875 C 2.488281 -10.445312 2.84375 -10.648438 3.25 -10.796875 C 3.664062 -10.941406 4.117188 -11.015625 4.609375 -11.015625 C 5.265625 -11.015625 5.863281 -10.890625 6.40625 -10.640625 C 6.957031 -10.390625 7.425781 -10.066406 7.8125 -9.671875 L 7.078125 -8.78125 C 6.742188 -9.101562 6.375 -9.351562 5.96875 -9.53125 C 5.570312 -9.71875 5.117188 -9.8125 4.609375 -9.8125 C 4.003906 -9.8125 3.519531 -9.671875 3.15625 -9.390625 C 2.789062 -9.109375 2.609375 -8.71875 2.609375 -8.21875 C 2.609375 -7.957031 2.660156 -7.734375 2.765625 -7.546875 C 2.867188 -7.367188 3.003906 -7.210938 3.171875 -7.078125 C 3.347656 -6.941406 3.539062 -6.820312 3.75 -6.71875 C 3.96875 -6.613281 4.1875 -6.515625 4.40625 -6.421875 L 5.9375 -5.765625 C 6.238281 -5.640625 6.523438 -5.488281 6.796875 -5.3125 C 7.078125 -5.144531 7.316406 -4.945312 7.515625 -4.71875 C 7.710938 -4.5 7.867188 -4.238281 7.984375 -3.9375 C 8.097656 -3.632812 8.15625 -3.285156 8.15625 -2.890625 C 8.15625 -2.453125 8.070312 -2.046875 7.90625 -1.671875 C 7.738281 -1.304688 7.492188 -0.984375 7.171875 -0.703125 C 6.847656 -0.421875 6.460938 -0.195312 6.015625 -0.03125 C 5.566406 0.125 5.054688 0.203125 4.484375 0.203125 Z M 4.484375 0.203125 "/></g></g></g><g fill="#2696c7" fill-opacity="1"><g transform="translate(235.292125, 187.156713)"><g><path d="M 1.484375 0 L 1.484375 -10.8125 L 7.71875 -10.8125 L 7.71875 -9.65625 L 2.859375 -9.65625 L 2.859375 -6.265625 L 6.953125 -6.265625 L 6.953125 -5.09375 L 2.859375 -5.09375 L 2.859375 -1.171875 L 7.875 -1.171875 L 7.875 0 Z M 1.484375 0 "/></g></g></g><g fill="#2696c7" fill-opacity="1"><g transform="translate(243.97706, 187.156713)"><g><path d="M 1.484375 0 L 1.484375 -10.8125 L 2.90625 -10.8125 L 6.8125 -4.015625 L 7.984375 -1.78125 L 8.046875 -1.78125 C 8.015625 -2.332031 7.976562 -2.898438 7.9375 -3.484375 C 7.894531 -4.078125 7.875 -4.65625 7.875 -5.21875 L 7.875 -10.8125 L 9.1875 -10.8125 L 9.1875 0 L 7.765625 0 L 3.84375 -6.8125 L 2.671875 -9.03125 L 2.609375 -9.03125 C 2.648438 -8.476562 2.6875 -7.921875 2.71875 -7.359375 C 2.757812 -6.796875 2.78125 -6.226562 2.78125 -5.65625 L 2.78125 0 Z M 1.484375 0 "/></g></g></g><g fill="#2696c7" fill-opacity="1"><g transform="translate(254.639593, 187.156713)"><g><path d="M 1.484375 0 L 1.484375 -10.8125 L 4.1875 -10.8125 C 5.851562 -10.8125 7.117188 -10.347656 7.984375 -9.421875 C 8.859375 -8.503906 9.296875 -7.179688 9.296875 -5.453125 C 9.296875 -4.597656 9.1875 -3.832031 8.96875 -3.15625 C 8.75 -2.476562 8.425781 -1.90625 8 -1.4375 C 7.570312 -0.96875 7.039062 -0.609375 6.40625 -0.359375 C 5.78125 -0.117188 5.0625 0 4.25 0 Z M 2.859375 -1.125 L 4.09375 -1.125 C 5.351562 -1.125 6.296875 -1.5 6.921875 -2.25 C 7.554688 -3.007812 7.875 -4.078125 7.875 -5.453125 C 7.875 -6.828125 7.554688 -7.875 6.921875 -8.59375 C 6.296875 -9.320312 5.351562 -9.6875 4.09375 -9.6875 L 2.859375 -9.6875 Z M 2.859375 -1.125 "/></g></g></g><g fill="#2696c7" fill-opacity="1"><g transform="translate(264.774776, 187.156713)"><g/></g></g><g fill="#2696c7" fill-opacity="1"><g transform="translate(268.070766, 187.156713)"><g><path d="M 1.484375 0 L 1.484375 -10.8125 L 7.71875 -10.8125 L 7.71875 -9.65625 L 2.859375 -9.65625 L 2.859375 -6 L 6.96875 -6 L 6.96875 -4.84375 L 2.859375 -4.84375 L 2.859375 0 Z M 1.484375 0 "/></g></g></g><g fill="#2696c7" fill-opacity="1"><g transform="translate(276.21187, 187.156713)"><g><path d="M 3.34375 -6.046875 L 2.828125 -4.40625 L 6.078125 -4.40625 L 5.578125 -6.046875 C 5.378906 -6.648438 5.191406 -7.25 5.015625 -7.84375 C 4.835938 -8.445312 4.660156 -9.0625 4.484375 -9.6875 L 4.421875 -9.6875 C 4.253906 -9.0625 4.082031 -8.445312 3.90625 -7.84375 C 3.726562 -7.25 3.539062 -6.648438 3.34375 -6.046875 Z M 0.046875 0 L 3.703125 -10.8125 L 5.265625 -10.8125 L 8.921875 0 L 7.453125 0 L 6.421875 -3.296875 L 2.484375 -3.296875 L 1.453125 0 Z M 0.046875 0 "/></g></g></g><g fill="#2696c7" fill-opacity="1"><g transform="translate(285.176979, 187.156713)"><g><path d="M 4.484375 0.203125 C 3.722656 0.203125 3.019531 0.0625 2.375 -0.21875 C 1.726562 -0.507812 1.164062 -0.90625 0.6875 -1.40625 L 1.515625 -2.359375 C 1.898438 -1.953125 2.351562 -1.625 2.875 -1.375 C 3.394531 -1.125 3.9375 -1 4.5 -1 C 5.21875 -1 5.773438 -1.160156 6.171875 -1.484375 C 6.566406 -1.816406 6.765625 -2.242188 6.765625 -2.765625 C 6.765625 -3.046875 6.71875 -3.28125 6.625 -3.46875 C 6.53125 -3.664062 6.398438 -3.832031 6.234375 -3.96875 C 6.078125 -4.101562 5.890625 -4.222656 5.671875 -4.328125 C 5.453125 -4.441406 5.21875 -4.5625 4.96875 -4.6875 L 3.40625 -5.359375 C 3.15625 -5.460938 2.894531 -5.59375 2.625 -5.75 C 2.363281 -5.90625 2.128906 -6.09375 1.921875 -6.3125 C 1.710938 -6.53125 1.539062 -6.789062 1.40625 -7.09375 C 1.28125 -7.394531 1.21875 -7.742188 1.21875 -8.140625 C 1.21875 -8.546875 1.300781 -8.925781 1.46875 -9.28125 C 1.644531 -9.632812 1.882812 -9.9375 2.1875 -10.1875 C 2.488281 -10.445312 2.84375 -10.648438 3.25 -10.796875 C 3.664062 -10.941406 4.117188 -11.015625 4.609375 -11.015625 C 5.265625 -11.015625 5.863281 -10.890625 6.40625 -10.640625 C 6.957031 -10.390625 7.425781 -10.066406 7.8125 -9.671875 L 7.078125 -8.78125 C 6.742188 -9.101562 6.375 -9.351562 5.96875 -9.53125 C 5.570312 -9.71875 5.117188 -9.8125 4.609375 -9.8125 C 4.003906 -9.8125 3.519531 -9.671875 3.15625 -9.390625 C 2.789062 -9.109375 2.609375 -8.71875 2.609375 -8.21875 C 2.609375 -7.957031 2.660156 -7.734375 2.765625 -7.546875 C 2.867188 -7.367188 3.003906 -7.210938 3.171875 -7.078125 C 3.347656 -6.941406 3.539062 -6.820312 3.75 -6.71875 C 3.96875 -6.613281 4.1875 -6.515625 4.40625 -6.421875 L 5.9375 -5.765625 C 6.238281 -5.640625 6.523438 -5.488281 6.796875 -5.3125 C 7.078125 -5.144531 7.316406 -4.945312 7.515625 -4.71875 C 7.710938 -4.5 7.867188 -4.238281 7.984375 -3.9375 C 8.097656 -3.632812 8.15625 -3.285156 8.15625 -2.890625 C 8.15625 -2.453125 8.070312 -2.046875 7.90625 -1.671875 C 7.738281 -1.304688 7.492188 -0.984375 7.171875 -0.703125 C 6.847656 -0.421875 6.460938 -0.195312 6.015625 -0.03125 C 5.566406 0.125 5.054688 0.203125 4.484375 0.203125 Z M 4.484375 0.203125 "/></g></g></g><g fill="#2696c7" fill-opacity="1"><g transform="translate(293.977288, 187.156713)"><g><path d="M 3.71875 0 L 3.71875 -9.65625 L 0.46875 -9.65625 L 0.46875 -10.8125 L 8.375 -10.8125 L 8.375 -9.65625 L 5.109375 -9.65625 L 5.109375 0 Z M 3.71875 0 "/></g></g></g><g fill="#2696c7" fill-opacity="1"><g transform="translate(302.810542, 187.156713)"><g/></g></g><g fill="#2696c7" fill-opacity="1"><g transform="translate(306.106533, 187.156713)"><g><path d="M 4.484375 0.203125 C 3.722656 0.203125 3.019531 0.0625 2.375 -0.21875 C 1.726562 -0.507812 1.164062 -0.90625 0.6875 -1.40625 L 1.515625 -2.359375 C 1.898438 -1.953125 2.351562 -1.625 2.875 -1.375 C 3.394531 -1.125 3.9375 -1 4.5 -1 C 5.21875 -1 5.773438 -1.160156 6.171875 -1.484375 C 6.566406 -1.816406 6.765625 -2.242188 6.765625 -2.765625 C 6.765625 -3.046875 6.71875 -3.28125 6.625 -3.46875 C 6.53125 -3.664062 6.398438 -3.832031 6.234375 -3.96875 C 6.078125 -4.101562 5.890625 -4.222656 5.671875 -4.328125 C 5.453125 -4.441406 5.21875 -4.5625 4.96875 -4.6875 L 3.40625 -5.359375 C 3.15625 -5.460938 2.894531 -5.59375 2.625 -5.75 C 2.363281 -5.90625 2.128906 -6.09375 1.921875 -6.3125 C 1.710938 -6.53125 1.539062 -6.789062 1.40625 -7.09375 C 1.28125 -7.394531 1.21875 -7.742188 1.21875 -8.140625 C 1.21875 -8.546875 1.300781 -8.925781 1.46875 -9.28125 C 1.644531 -9.632812 1.882812 -9.9375 2.1875 -10.1875 C 2.488281 -10.445312 2.84375 -10.648438 3.25 -10.796875 C 3.664062 -10.941406 4.117188 -11.015625 4.609375 -11.015625 C 5.265625 -11.015625 5.863281 -10.890625 6.40625 -10.640625 C 6.957031 -10.390625 7.425781 -10.066406 7.8125 -9.671875 L 7.078125 -8.78125 C 6.742188 -9.101562 6.375 -9.351562 5.96875 -9.53125 C 5.570312 -9.71875 5.117188 -9.8125 4.609375 -9.8125 C 4.003906 -9.8125 3.519531 -9.671875 3.15625 -9.390625 C 2.789062 -9.109375 2.609375 -8.71875 2.609375 -8.21875 C 2.609375 -7.957031 2.660156 -7.734375 2.765625 -7.546875 C 2.867188 -7.367188 3.003906 -7.210938 3.171875 -7.078125 C 3.347656 -6.941406 3.539062 -6.820312 3.75 -6.71875 C 3.96875 -6.613281 4.1875 -6.515625 4.40625 -6.421875 L 5.9375 -5.765625 C 6.238281 -5.640625 6.523438 -5.488281 6.796875 -5.3125 C 7.078125 -5.144531 7.316406 -4.945312 7.515625 -4.71875 C 7.710938 -4.5 7.867188 -4.238281 7.984375 -3.9375 C 8.097656 -3.632812 8.15625 -3.285156 8.15625 -2.890625 C 8.15625 -2.453125 8.070312 -2.046875 7.90625 -1.671875 C 7.738281 -1.304688 7.492188 -0.984375 7.171875 -0.703125 C 6.847656 -0.421875 6.460938 -0.195312 6.015625 -0.03125 C 5.566406 0.125 5.054688 0.203125 4.484375 0.203125 Z M 4.484375 0.203125 "/></g></g></g><g fill="#2696c7" fill-opacity="1"><g transform="translate(314.906841, 187.156713)"><g><path d="M 3.234375 0 L 3.234375 -4.1875 L -0.015625 -10.8125 L 1.453125 -10.8125 L 2.859375 -7.765625 C 3.023438 -7.367188 3.191406 -6.976562 3.359375 -6.59375 C 3.523438 -6.207031 3.703125 -5.8125 3.890625 -5.40625 L 3.953125 -5.40625 C 4.140625 -5.8125 4.328125 -6.207031 4.515625 -6.59375 C 4.703125 -6.976562 4.878906 -7.367188 5.046875 -7.765625 L 6.421875 -10.8125 L 7.859375 -10.8125 L 4.609375 -4.1875 L 4.609375 0 Z M 3.234375 0 "/></g></g></g><g fill="#2696c7" fill-opacity="1"><g transform="translate(322.751305, 187.156713)"><g><path d="M 1.484375 0 L 1.484375 -10.8125 L 2.90625 -10.8125 L 6.8125 -4.015625 L 7.984375 -1.78125 L 8.046875 -1.78125 C 8.015625 -2.332031 7.976562 -2.898438 7.9375 -3.484375 C 7.894531 -4.078125 7.875 -4.65625 7.875 -5.21875 L 7.875 -10.8125 L 9.1875 -10.8125 L 9.1875 0 L 7.765625 0 L 3.84375 -6.8125 L 2.671875 -9.03125 L 2.609375 -9.03125 C 2.648438 -8.476562 2.6875 -7.921875 2.71875 -7.359375 C 2.757812 -6.796875 2.78125 -6.226562 2.78125 -5.65625 L 2.78125 0 Z M 1.484375 0 "/></g></g></g><g fill="#2696c7" fill-opacity="1"><g transform="translate(333.413838, 187.156713)"><g><path d="M 5.578125 0.203125 C 4.890625 0.203125 4.257812 0.078125 3.6875 -0.171875 C 3.113281 -0.429688 2.613281 -0.800781 2.1875 -1.28125 C 1.769531 -1.757812 1.441406 -2.347656 1.203125 -3.046875 C 0.972656 -3.742188 0.859375 -4.53125 0.859375 -5.40625 C 0.859375 -6.269531 0.976562 -7.046875 1.21875 -7.734375 C 1.457031 -8.429688 1.789062 -9.019531 2.21875 -9.5 C 2.65625 -9.988281 3.160156 -10.363281 3.734375 -10.625 C 4.316406 -10.882812 4.957031 -11.015625 5.65625 -11.015625 C 6.3125 -11.015625 6.890625 -10.878906 7.390625 -10.609375 C 7.890625 -10.335938 8.300781 -10.023438 8.625 -9.671875 L 7.875 -8.78125 C 7.59375 -9.09375 7.269531 -9.34375 6.90625 -9.53125 C 6.539062 -9.71875 6.128906 -9.8125 5.671875 -9.8125 C 5.148438 -9.8125 4.679688 -9.707031 4.265625 -9.5 C 3.847656 -9.300781 3.488281 -9.007812 3.1875 -8.625 C 2.894531 -8.25 2.671875 -7.789062 2.515625 -7.25 C 2.359375 -6.71875 2.28125 -6.113281 2.28125 -5.4375 C 2.28125 -4.757812 2.359375 -4.144531 2.515625 -3.59375 C 2.671875 -3.050781 2.890625 -2.585938 3.171875 -2.203125 C 3.460938 -1.816406 3.8125 -1.519531 4.21875 -1.3125 C 4.632812 -1.101562 5.101562 -1 5.625 -1 C 6.144531 -1 6.601562 -1.101562 7 -1.3125 C 7.394531 -1.53125 7.769531 -1.832031 8.125 -2.21875 L 8.890625 -1.375 C 8.453125 -0.875 7.960938 -0.484375 7.421875 -0.203125 C 6.890625 0.0664062 6.273438 0.203125 5.578125 0.203125 Z M 5.578125 0.203125 "/></g></g></g><g fill="#2696c7" fill-opacity="1"><g transform="translate(342.823906, 187.156713)"><g><path d="M 1.484375 0 L 1.484375 -10.8125 L 2.859375 -10.8125 L 2.859375 -6.28125 L 7.875 -6.28125 L 7.875 -10.8125 L 9.265625 -10.8125 L 9.265625 0 L 7.875 0 L 7.875 -5.09375 L 2.859375 -5.09375 L 2.859375 0 Z M 1.484375 0 "/></g></g></g><g fill="#2696c7" fill-opacity="1"><g transform="translate(353.568849, 187.156713)"><g><path d="M 1.484375 0 L 1.484375 -10.8125 L 4.859375 -10.8125 C 5.410156 -10.8125 5.921875 -10.757812 6.390625 -10.65625 C 6.859375 -10.550781 7.257812 -10.378906 7.59375 -10.140625 C 7.925781 -9.898438 8.1875 -9.585938 8.375 -9.203125 C 8.5625 -8.816406 8.65625 -8.34375 8.65625 -7.78125 C 8.65625 -6.9375 8.429688 -6.257812 7.984375 -5.75 C 7.546875 -5.25 6.957031 -4.90625 6.21875 -4.71875 L 8.96875 0 L 7.421875 0 L 4.8125 -4.5625 L 2.859375 -4.5625 L 2.859375 0 Z M 2.859375 -5.6875 L 4.671875 -5.6875 C 5.515625 -5.6875 6.160156 -5.859375 6.609375 -6.203125 C 7.054688 -6.546875 7.28125 -7.070312 7.28125 -7.78125 C 7.28125 -8.5 7.054688 -9 6.609375 -9.28125 C 6.160156 -9.5625 5.515625 -9.703125 4.671875 -9.703125 L 2.859375 -9.703125 Z M 2.859375 -5.6875 "/></g></g></g><g fill="#2696c7" fill-opacity="1"><g transform="translate(362.945953, 187.156713)"><g><path d="M 5.46875 0.203125 C 4.789062 0.203125 4.164062 0.0703125 3.59375 -0.1875 C 3.03125 -0.457031 2.546875 -0.835938 2.140625 -1.328125 C 1.734375 -1.816406 1.414062 -2.410156 1.1875 -3.109375 C 0.96875 -3.804688 0.859375 -4.585938 0.859375 -5.453125 C 0.859375 -6.328125 0.96875 -7.101562 1.1875 -7.78125 C 1.414062 -8.46875 1.734375 -9.050781 2.140625 -9.53125 C 2.546875 -10.007812 3.03125 -10.375 3.59375 -10.625 C 4.164062 -10.882812 4.789062 -11.015625 5.46875 -11.015625 C 6.15625 -11.015625 6.78125 -10.882812 7.34375 -10.625 C 7.90625 -10.363281 8.390625 -9.992188 8.796875 -9.515625 C 9.210938 -9.035156 9.535156 -8.453125 9.765625 -7.765625 C 9.992188 -7.078125 10.109375 -6.304688 10.109375 -5.453125 C 10.109375 -4.585938 9.992188 -3.804688 9.765625 -3.109375 C 9.535156 -2.410156 9.210938 -1.816406 8.796875 -1.328125 C 8.390625 -0.835938 7.90625 -0.457031 7.34375 -0.1875 C 6.78125 0.0703125 6.15625 0.203125 5.46875 0.203125 Z M 5.46875 -1 C 5.957031 -1 6.394531 -1.101562 6.78125 -1.3125 C 7.175781 -1.519531 7.507812 -1.816406 7.78125 -2.203125 C 8.0625 -2.597656 8.28125 -3.066406 8.4375 -3.609375 C 8.59375 -4.160156 8.671875 -4.773438 8.671875 -5.453125 C 8.671875 -6.128906 8.59375 -6.734375 8.4375 -7.265625 C 8.28125 -7.804688 8.0625 -8.265625 7.78125 -8.640625 C 7.507812 -9.015625 7.175781 -9.300781 6.78125 -9.5 C 6.394531 -9.707031 5.957031 -9.8125 5.46875 -9.8125 C 4.988281 -9.8125 4.550781 -9.707031 4.15625 -9.5 C 3.769531 -9.300781 3.4375 -9.015625 3.15625 -8.640625 C 2.875 -8.265625 2.65625 -7.804688 2.5 -7.265625 C 2.351562 -6.734375 2.28125 -6.128906 2.28125 -5.453125 C 2.28125 -4.773438 2.351562 -4.160156 2.5 -3.609375 C 2.65625 -3.066406 2.875 -2.597656 3.15625 -2.203125 C 3.4375 -1.816406 3.769531 -1.519531 4.15625 -1.3125 C 4.550781 -1.101562 4.988281 -1 5.46875 -1 Z M 5.46875 -1 "/></g></g></g><g fill="#2696c7" fill-opacity="1"><g transform="translate(373.888643, 187.156713)"><g><path d="M 1.484375 0 L 1.484375 -10.8125 L 2.90625 -10.8125 L 6.8125 -4.015625 L 7.984375 -1.78125 L 8.046875 -1.78125 C 8.015625 -2.332031 7.976562 -2.898438 7.9375 -3.484375 C 7.894531 -4.078125 7.875 -4.65625 7.875 -5.21875 L 7.875 -10.8125 L 9.1875 -10.8125 L 9.1875 0 L 7.765625 0 L 3.84375 -6.8125 L 2.671875 -9.03125 L 2.609375 -9.03125 C 2.648438 -8.476562 2.6875 -7.921875 2.71875 -7.359375 C 2.757812 -6.796875 2.78125 -6.226562 2.78125 -5.65625 L 2.78125 0 Z M 1.484375 0 "/></g></g></g><g fill="#2696c7" fill-opacity="1"><g transform="translate(384.551176, 187.156713)"><g><path d="M 5.46875 0.203125 C 4.789062 0.203125 4.164062 0.0703125 3.59375 -0.1875 C 3.03125 -0.457031 2.546875 -0.835938 2.140625 -1.328125 C 1.734375 -1.816406 1.414062 -2.410156 1.1875 -3.109375 C 0.96875 -3.804688 0.859375 -4.585938 0.859375 -5.453125 C 0.859375 -6.328125 0.96875 -7.101562 1.1875 -7.78125 C 1.414062 -8.46875 1.734375 -9.050781 2.140625 -9.53125 C 2.546875 -10.007812 3.03125 -10.375 3.59375 -10.625 C 4.164062 -10.882812 4.789062 -11.015625 5.46875 -11.015625 C 6.15625 -11.015625 6.78125 -10.882812 7.34375 -10.625 C 7.90625 -10.363281 8.390625 -9.992188 8.796875 -9.515625 C 9.210938 -9.035156 9.535156 -8.453125 9.765625 -7.765625 C 9.992188 -7.078125 10.109375 -6.304688 10.109375 -5.453125 C 10.109375 -4.585938 9.992188 -3.804688 9.765625 -3.109375 C 9.535156 -2.410156 9.210938 -1.816406 8.796875 -1.328125 C 8.390625 -0.835938 7.90625 -0.457031 7.34375 -0.1875 C 6.78125 0.0703125 6.15625 0.203125 5.46875 0.203125 Z M 5.46875 -1 C 5.957031 -1 6.394531 -1.101562 6.78125 -1.3125 C 7.175781 -1.519531 7.507812 -1.816406 7.78125 -2.203125 C 8.0625 -2.597656 8.28125 -3.066406 8.4375 -3.609375 C 8.59375 -4.160156 8.671875 -4.773438 8.671875 -5.453125 C 8.671875 -6.128906 8.59375 -6.734375 8.4375 -7.265625 C 8.28125 -7.804688 8.0625 -8.265625 7.78125 -8.640625 C 7.507812 -9.015625 7.175781 -9.300781 6.78125 -9.5 C 6.394531 -9.707031 5.957031 -9.8125 5.46875 -9.8125 C 4.988281 -9.8125 4.550781 -9.707031 4.15625 -9.5 C 3.769531 -9.300781 3.4375 -9.015625 3.15625 -8.640625 C 2.875 -8.265625 2.65625 -7.804688 2.5 -7.265625 C 2.351562 -6.734375 2.28125 -6.128906 2.28125 -5.453125 C 2.28125 -4.773438 2.351562 -4.160156 2.5 -3.609375 C 2.65625 -3.066406 2.875 -2.597656 3.15625 -2.203125 C 3.4375 -1.816406 3.769531 -1.519531 4.15625 -1.3125 C 4.550781 -1.101562 4.988281 -1 5.46875 -1 Z M 5.46875 -1 "/></g></g></g><g fill="#2696c7" fill-opacity="1"><g transform="translate(395.493866, 187.156713)"><g><path d="M 5.328125 0.203125 C 4.773438 0.203125 4.257812 0.125 3.78125 -0.03125 C 3.300781 -0.195312 2.890625 -0.460938 2.546875 -0.828125 C 2.203125 -1.203125 1.929688 -1.6875 1.734375 -2.28125 C 1.535156 -2.875 1.4375 -3.601562 1.4375 -4.46875 L 1.4375 -10.8125 L 2.796875 -10.8125 L 2.796875 -4.4375 C 2.796875 -3.789062 2.863281 -3.242188 3 -2.796875 C 3.132812 -2.359375 3.3125 -2.007812 3.53125 -1.75 C 3.757812 -1.488281 4.023438 -1.296875 4.328125 -1.171875 C 4.640625 -1.054688 4.972656 -1 5.328125 -1 C 5.691406 -1 6.023438 -1.054688 6.328125 -1.171875 C 6.640625 -1.296875 6.910156 -1.488281 7.140625 -1.75 C 7.367188 -2.007812 7.546875 -2.359375 7.671875 -2.796875 C 7.804688 -3.242188 7.875 -3.789062 7.875 -4.4375 L 7.875 -10.8125 L 9.203125 -10.8125 L 9.203125 -4.46875 C 9.203125 -3.601562 9.101562 -2.875 8.90625 -2.28125 C 8.707031 -1.6875 8.429688 -1.203125 8.078125 -0.828125 C 7.734375 -0.460938 7.328125 -0.195312 6.859375 -0.03125 C 6.390625 0.125 5.878906 0.203125 5.328125 0.203125 Z M 5.328125 0.203125 "/></g></g></g><g fill="#2696c7" fill-opacity="1"><g transform="translate(406.123435, 187.156713)"><g><path d="M 4.484375 0.203125 C 3.722656 0.203125 3.019531 0.0625 2.375 -0.21875 C 1.726562 -0.507812 1.164062 -0.90625 0.6875 -1.40625 L 1.515625 -2.359375 C 1.898438 -1.953125 2.351562 -1.625 2.875 -1.375 C 3.394531 -1.125 3.9375 -1 4.5 -1 C 5.21875 -1 5.773438 -1.160156 6.171875 -1.484375 C 6.566406 -1.816406 6.765625 -2.242188 6.765625 -2.765625 C 6.765625 -3.046875 6.71875 -3.28125 6.625 -3.46875 C 6.53125 -3.664062 6.398438 -3.832031 6.234375 -3.96875 C 6.078125 -4.101562 5.890625 -4.222656 5.671875 -4.328125 C 5.453125 -4.441406 5.21875 -4.5625 4.96875 -4.6875 L 3.40625 -5.359375 C 3.15625 -5.460938 2.894531 -5.59375 2.625 -5.75 C 2.363281 -5.90625 2.128906 -6.09375 1.921875 -6.3125 C 1.710938 -6.53125 1.539062 -6.789062 1.40625 -7.09375 C 1.28125 -7.394531 1.21875 -7.742188 1.21875 -8.140625 C 1.21875 -8.546875 1.300781 -8.925781 1.46875 -9.28125 C 1.644531 -9.632812 1.882812 -9.9375 2.1875 -10.1875 C 2.488281 -10.445312 2.84375 -10.648438 3.25 -10.796875 C 3.664062 -10.941406 4.117188 -11.015625 4.609375 -11.015625 C 5.265625 -11.015625 5.863281 -10.890625 6.40625 -10.640625 C 6.957031 -10.390625 7.425781 -10.066406 7.8125 -9.671875 L 7.078125 -8.78125 C 6.742188 -9.101562 6.375 -9.351562 5.96875 -9.53125 C 5.570312 -9.71875 5.117188 -9.8125 4.609375 -9.8125 C 4.003906 -9.8125 3.519531 -9.671875 3.15625 -9.390625 C 2.789062 -9.109375 2.609375 -8.71875 2.609375 -8.21875 C 2.609375 -7.957031 2.660156 -7.734375 2.765625 -7.546875 C 2.867188 -7.367188 3.003906 -7.210938 3.171875 -7.078125 C 3.347656 -6.941406 3.539062 -6.820312 3.75 -6.71875 C 3.96875 -6.613281 4.1875 -6.515625 4.40625 -6.421875 L 5.9375 -5.765625 C 6.238281 -5.640625 6.523438 -5.488281 6.796875 -5.3125 C 7.078125 -5.144531 7.316406 -4.945312 7.515625 -4.71875 C 7.710938 -4.5 7.867188 -4.238281 7.984375 -3.9375 C 8.097656 -3.632812 8.15625 -3.285156 8.15625 -2.890625 C 8.15625 -2.453125 8.070312 -2.046875 7.90625 -1.671875 C 7.738281 -1.304688 7.492188 -0.984375 7.171875 -0.703125 C 6.847656 -0.421875 6.460938 -0.195312 6.015625 -0.03125 C 5.566406 0.125 5.054688 0.203125 4.484375 0.203125 Z M 4.484375 0.203125 "/></g></g></g><g fill="#2696c7" fill-opacity="1"><g transform="translate(414.923744, 187.156713)"><g/></g></g><g fill="#2696c7" fill-opacity="1"><g transform="translate(418.219734, 187.156713)"><g><path d="M 1.484375 0 L 1.484375 -10.8125 L 4.859375 -10.8125 C 5.410156 -10.8125 5.921875 -10.757812 6.390625 -10.65625 C 6.859375 -10.550781 7.257812 -10.378906 7.59375 -10.140625 C 7.925781 -9.898438 8.1875 -9.585938 8.375 -9.203125 C 8.5625 -8.816406 8.65625 -8.34375 8.65625 -7.78125 C 8.65625 -6.9375 8.429688 -6.257812 7.984375 -5.75 C 7.546875 -5.25 6.957031 -4.90625 6.21875 -4.71875 L 8.96875 0 L 7.421875 0 L 4.8125 -4.5625 L 2.859375 -4.5625 L 2.859375 0 Z M 2.859375 -5.6875 L 4.671875 -5.6875 C 5.515625 -5.6875 6.160156 -5.859375 6.609375 -6.203125 C 7.054688 -6.546875 7.28125 -7.070312 7.28125 -7.78125 C 7.28125 -8.5 7.054688 -9 6.609375 -9.28125 C 6.160156 -9.5625 5.515625 -9.703125 4.671875 -9.703125 L 2.859375 -9.703125 Z M 2.859375 -5.6875 "/></g></g></g><g fill="#2696c7" fill-opacity="1"><g transform="translate(427.596838, 187.156713)"><g><path d="M 1.484375 0 L 1.484375 -10.8125 L 7.71875 -10.8125 L 7.71875 -9.65625 L 2.859375 -9.65625 L 2.859375 -6.265625 L 6.953125 -6.265625 L 6.953125 -5.09375 L 2.859375 -5.09375 L 2.859375 -1.171875 L 7.875 -1.171875 L 7.875 0 Z M 1.484375 0 "/></g></g></g><g fill="#2696c7" fill-opacity="1"><g transform="translate(436.281773, 187.156713)"><g><path d="M 5.46875 -0.9375 C 5.957031 -0.9375 6.394531 -1.039062 6.78125 -1.25 C 7.175781 -1.457031 7.507812 -1.757812 7.78125 -2.15625 C 8.0625 -2.550781 8.28125 -3.023438 8.4375 -3.578125 C 8.59375 -4.140625 8.671875 -4.765625 8.671875 -5.453125 C 8.671875 -6.128906 8.59375 -6.734375 8.4375 -7.265625 C 8.28125 -7.804688 8.0625 -8.265625 7.78125 -8.640625 C 7.507812 -9.015625 7.175781 -9.300781 6.78125 -9.5 C 6.394531 -9.707031 5.957031 -9.8125 5.46875 -9.8125 C 4.988281 -9.8125 4.550781 -9.707031 4.15625 -9.5 C 3.769531 -9.300781 3.4375 -9.015625 3.15625 -8.640625 C 2.875 -8.265625 2.65625 -7.804688 2.5 -7.265625 C 2.351562 -6.734375 2.28125 -6.128906 2.28125 -5.453125 C 2.28125 -4.765625 2.351562 -4.140625 2.5 -3.578125 C 2.65625 -3.023438 2.875 -2.550781 3.15625 -2.15625 C 3.4375 -1.757812 3.769531 -1.457031 4.15625 -1.25 C 4.550781 -1.039062 4.988281 -0.9375 5.46875 -0.9375 Z M 8.78125 2.71875 C 8.289062 2.71875 7.832031 2.65625 7.40625 2.53125 C 6.988281 2.40625 6.609375 2.222656 6.265625 1.984375 C 5.929688 1.753906 5.640625 1.484375 5.390625 1.171875 C 5.148438 0.859375 4.953125 0.515625 4.796875 0.140625 C 4.203125 0.0664062 3.660156 -0.113281 3.171875 -0.40625 C 2.691406 -0.707031 2.28125 -1.097656 1.9375 -1.578125 C 1.59375 -2.066406 1.328125 -2.632812 1.140625 -3.28125 C 0.953125 -3.9375 0.859375 -4.660156 0.859375 -5.453125 C 0.859375 -6.328125 0.96875 -7.101562 1.1875 -7.78125 C 1.414062 -8.46875 1.734375 -9.050781 2.140625 -9.53125 C 2.546875 -10.007812 3.03125 -10.375 3.59375 -10.625 C 4.164062 -10.882812 4.789062 -11.015625 5.46875 -11.015625 C 6.15625 -11.015625 6.78125 -10.882812 7.34375 -10.625 C 7.90625 -10.363281 8.390625 -9.992188 8.796875 -9.515625 C 9.210938 -9.035156 9.535156 -8.453125 9.765625 -7.765625 C 9.992188 -7.078125 10.109375 -6.304688 10.109375 -5.453125 C 10.109375 -4.671875 10.015625 -3.957031 9.828125 -3.3125 C 9.648438 -2.675781 9.394531 -2.117188 9.0625 -1.640625 C 8.726562 -1.160156 8.320312 -0.769531 7.84375 -0.46875 C 7.375 -0.164062 6.851562 0.03125 6.28125 0.125 C 6.53125 0.613281 6.882812 0.972656 7.34375 1.203125 C 7.8125 1.441406 8.34375 1.5625 8.9375 1.5625 C 9.175781 1.5625 9.382812 1.546875 9.5625 1.515625 C 9.75 1.492188 9.921875 1.460938 10.078125 1.421875 L 10.328125 2.46875 C 10.171875 2.539062 9.953125 2.597656 9.671875 2.640625 C 9.398438 2.691406 9.101562 2.71875 8.78125 2.71875 Z M 8.78125 2.71875 "/></g></g></g><g fill="#2696c7" fill-opacity="1"><g transform="translate(447.224463, 187.156713)"><g><path d="M 5.328125 0.203125 C 4.773438 0.203125 4.257812 0.125 3.78125 -0.03125 C 3.300781 -0.195312 2.890625 -0.460938 2.546875 -0.828125 C 2.203125 -1.203125 1.929688 -1.6875 1.734375 -2.28125 C 1.535156 -2.875 1.4375 -3.601562 1.4375 -4.46875 L 1.4375 -10.8125 L 2.796875 -10.8125 L 2.796875 -4.4375 C 2.796875 -3.789062 2.863281 -3.242188 3 -2.796875 C 3.132812 -2.359375 3.3125 -2.007812 3.53125 -1.75 C 3.757812 -1.488281 4.023438 -1.296875 4.328125 -1.171875 C 4.640625 -1.054688 4.972656 -1 5.328125 -1 C 5.691406 -1 6.023438 -1.054688 6.328125 -1.171875 C 6.640625 -1.296875 6.910156 -1.488281 7.140625 -1.75 C 7.367188 -2.007812 7.546875 -2.359375 7.671875 -2.796875 C 7.804688 -3.242188 7.875 -3.789062 7.875 -4.4375 L 7.875 -10.8125 L 9.203125 -10.8125 L 9.203125 -4.46875 C 9.203125 -3.601562 9.101562 -2.875 8.90625 -2.28125 C 8.707031 -1.6875 8.429688 -1.203125 8.078125 -0.828125 C 7.734375 -0.460938 7.328125 -0.195312 6.859375 -0.03125 C 6.390625 0.125 5.878906 0.203125 5.328125 0.203125 Z M 5.328125 0.203125 "/></g></g></g><g fill="#2696c7" fill-opacity="1"><g transform="translate(457.854033, 187.156713)"><g><path d="M 1.484375 0 L 1.484375 -10.8125 L 7.71875 -10.8125 L 7.71875 -9.65625 L 2.859375 -9.65625 L 2.859375 -6.265625 L 6.953125 -6.265625 L 6.953125 -5.09375 L 2.859375 -5.09375 L 2.859375 -1.171875 L 7.875 -1.171875 L 7.875 0 Z M 1.484375 0 "/></g></g></g><g fill="#2696c7" fill-opacity="1"><g transform="translate(466.538968, 187.156713)"><g><path d="M 4.484375 0.203125 C 3.722656 0.203125 3.019531 0.0625 2.375 -0.21875 C 1.726562 -0.507812 1.164062 -0.90625 0.6875 -1.40625 L 1.515625 -2.359375 C 1.898438 -1.953125 2.351562 -1.625 2.875 -1.375 C 3.394531 -1.125 3.9375 -1 4.5 -1 C 5.21875 -1 5.773438 -1.160156 6.171875 -1.484375 C 6.566406 -1.816406 6.765625 -2.242188 6.765625 -2.765625 C 6.765625 -3.046875 6.71875 -3.28125 6.625 -3.46875 C 6.53125 -3.664062 6.398438 -3.832031 6.234375 -3.96875 C 6.078125 -4.101562 5.890625 -4.222656 5.671875 -4.328125 C 5.453125 -4.441406 5.21875 -4.5625 4.96875 -4.6875 L 3.40625 -5.359375 C 3.15625 -5.460938 2.894531 -5.59375 2.625 -5.75 C 2.363281 -5.90625 2.128906 -6.09375 1.921875 -6.3125 C 1.710938 -6.53125 1.539062 -6.789062 1.40625 -7.09375 C 1.28125 -7.394531 1.21875 -7.742188 1.21875 -8.140625 C 1.21875 -8.546875 1.300781 -8.925781 1.46875 -9.28125 C 1.644531 -9.632812 1.882812 -9.9375 2.1875 -10.1875 C 2.488281 -10.445312 2.84375 -10.648438 3.25 -10.796875 C 3.664062 -10.941406 4.117188 -11.015625 4.609375 -11.015625 C 5.265625 -11.015625 5.863281 -10.890625 6.40625 -10.640625 C 6.957031 -10.390625 7.425781 -10.066406 7.8125 -9.671875 L 7.078125 -8.78125 C 6.742188 -9.101562 6.375 -9.351562 5.96875 -9.53125 C 5.570312 -9.71875 5.117188 -9.8125 4.609375 -9.8125 C 4.003906 -9.8125 3.519531 -9.671875 3.15625 -9.390625 C 2.789062 -9.109375 2.609375 -8.71875 2.609375 -8.21875 C 2.609375 -7.957031 2.660156 -7.734375 2.765625 -7.546875 C 2.867188 -7.367188 3.003906 -7.210938 3.171875 -7.078125 C 3.347656 -6.941406 3.539062 -6.820312 3.75 -6.71875 C 3.96875 -6.613281 4.1875 -6.515625 4.40625 -6.421875 L 5.9375 -5.765625 C 6.238281 -5.640625 6.523438 -5.488281 6.796875 -5.3125 C 7.078125 -5.144531 7.316406 -4.945312 7.515625 -4.71875 C 7.710938 -4.5 7.867188 -4.238281 7.984375 -3.9375 C 8.097656 -3.632812 8.15625 -3.285156 8.15625 -2.890625 C 8.15625 -2.453125 8.070312 -2.046875 7.90625 -1.671875 C 7.738281 -1.304688 7.492188 -0.984375 7.171875 -0.703125 C 6.847656 -0.421875 6.460938 -0.195312 6.015625 -0.03125 C 5.566406 0.125 5.054688 0.203125 4.484375 0.203125 Z M 4.484375 0.203125 "/></g></g></g><g fill="#2696c7" fill-opacity="1"><g transform="translate(475.339276, 187.156713)"><g><path d="M 3.71875 0 L 3.71875 -9.65625 L 0.46875 -9.65625 L 0.46875 -10.8125 L 8.375 -10.8125 L 8.375 -9.65625 L 5.109375 -9.65625 L 5.109375 0 Z M 3.71875 0 "/></g></g></g><g fill="#2696c7" fill-opacity="1"><g transform="translate(484.172531, 187.156713)"><g><path d="M 4.484375 0.203125 C 3.722656 0.203125 3.019531 0.0625 2.375 -0.21875 C 1.726562 -0.507812 1.164062 -0.90625 0.6875 -1.40625 L 1.515625 -2.359375 C 1.898438 -1.953125 2.351562 -1.625 2.875 -1.375 C 3.394531 -1.125 3.9375 -1 4.5 -1 C 5.21875 -1 5.773438 -1.160156 6.171875 -1.484375 C 6.566406 -1.816406 6.765625 -2.242188 6.765625 -2.765625 C 6.765625 -3.046875 6.71875 -3.28125 6.625 -3.46875 C 6.53125 -3.664062 6.398438 -3.832031 6.234375 -3.96875 C 6.078125 -4.101562 5.890625 -4.222656 5.671875 -4.328125 C 5.453125 -4.441406 5.21875 -4.5625 4.96875 -4.6875 L 3.40625 -5.359375 C 3.15625 -5.460938 2.894531 -5.59375 2.625 -5.75 C 2.363281 -5.90625 2.128906 -6.09375 1.921875 -6.3125 C 1.710938 -6.53125 1.539062 -6.789062 1.40625 -7.09375 C 1.28125 -7.394531 1.21875 -7.742188 1.21875 -8.140625 C 1.21875 -8.546875 1.300781 -8.925781 1.46875 -9.28125 C 1.644531 -9.632812 1.882812 -9.9375 2.1875 -10.1875 C 2.488281 -10.445312 2.84375 -10.648438 3.25 -10.796875 C 3.664062 -10.941406 4.117188 -11.015625 4.609375 -11.015625 C 5.265625 -11.015625 5.863281 -10.890625 6.40625 -10.640625 C 6.957031 -10.390625 7.425781 -10.066406 7.8125 -9.671875 L 7.078125 -8.78125 C 6.742188 -9.101562 6.375 -9.351562 5.96875 -9.53125 C 5.570312 -9.71875 5.117188 -9.8125 4.609375 -9.8125 C 4.003906 -9.8125 3.519531 -9.671875 3.15625 -9.390625 C 2.789062 -9.109375 2.609375 -8.71875 2.609375 -8.21875 C 2.609375 -7.957031 2.660156 -7.734375 2.765625 -7.546875 C 2.867188 -7.367188 3.003906 -7.210938 3.171875 -7.078125 C 3.347656 -6.941406 3.539062 -6.820312 3.75 -6.71875 C 3.96875 -6.613281 4.1875 -6.515625 4.40625 -6.421875 L 5.9375 -5.765625 C 6.238281 -5.640625 6.523438 -5.488281 6.796875 -5.3125 C 7.078125 -5.144531 7.316406 -4.945312 7.515625 -4.71875 C 7.710938 -4.5 7.867188 -4.238281 7.984375 -3.9375 C 8.097656 -3.632812 8.15625 -3.285156 8.15625 -2.890625 C 8.15625 -2.453125 8.070312 -2.046875 7.90625 -1.671875 C 7.738281 -1.304688 7.492188 -0.984375 7.171875 -0.703125 C 6.847656 -0.421875 6.460938 -0.195312 6.015625 -0.03125 C 5.566406 0.125 5.054688 0.203125 4.484375 0.203125 Z M 4.484375 0.203125 "/></g></g></g><g fill="#2696c7" fill-opacity="1"><g transform="translate(492.972839, 187.156713)"><g/></g></g><g fill="#2696c7" fill-opacity="1"><g transform="translate(496.26883, 187.156713)"><g><path d="M 1.484375 0 L 1.484375 -10.8125 L 2.859375 -10.8125 L 2.859375 0 Z M 1.484375 0 "/></g></g></g><g fill="#2696c7" fill-opacity="1"><g transform="translate(500.603056, 187.156713)"><g><path d="M 1.484375 0 L 1.484375 -10.8125 L 2.90625 -10.8125 L 6.8125 -4.015625 L 7.984375 -1.78125 L 8.046875 -1.78125 C 8.015625 -2.332031 7.976562 -2.898438 7.9375 -3.484375 C 7.894531 -4.078125 7.875 -4.65625 7.875 -5.21875 L 7.875 -10.8125 L 9.1875 -10.8125 L 9.1875 0 L 7.765625 0 L 3.84375 -6.8125 L 2.671875 -9.03125 L 2.609375 -9.03125 C 2.648438 -8.476562 2.6875 -7.921875 2.71875 -7.359375 C 2.757812 -6.796875 2.78125 -6.226562 2.78125 -5.65625 L 2.78125 0 Z M 1.484375 0 "/></g></g></g><g fill="#2696c7" fill-opacity="1"><g transform="translate(511.265589, 187.156713)"><g/></g></g><g fill="#2696c7" fill-opacity="1"><g transform="translate(514.56158, 187.156713)"><g><path d="M 1.484375 0 L 1.484375 -10.8125 L 2.90625 -10.8125 L 6.8125 -4.015625 L 7.984375 -1.78125 L 8.046875 -1.78125 C 8.015625 -2.332031 7.976562 -2.898438 7.9375 -3.484375 C 7.894531 -4.078125 7.875 -4.65625 7.875 -5.21875 L 7.875 -10.8125 L 9.1875 -10.8125 L 9.1875 0 L 7.765625 0 L 3.84375 -6.8125 L 2.671875 -9.03125 L 2.609375 -9.03125 C 2.648438 -8.476562 2.6875 -7.921875 2.71875 -7.359375 C 2.757812 -6.796875 2.78125 -6.226562 2.78125 -5.65625 L 2.78125 0 Z M 1.484375 0 "/></g></g></g><g fill="#2696c7" fill-opacity="1"><g transform="translate(525.224113, 187.156713)"><g><path d="M 5.46875 0.203125 C 4.789062 0.203125 4.164062 0.0703125 3.59375 -0.1875 C 3.03125 -0.457031 2.546875 -0.835938 2.140625 -1.328125 C 1.734375 -1.816406 1.414062 -2.410156 1.1875 -3.109375 C 0.96875 -3.804688 0.859375 -4.585938 0.859375 -5.453125 C 0.859375 -6.328125 0.96875 -7.101562 1.1875 -7.78125 C 1.414062 -8.46875 1.734375 -9.050781 2.140625 -9.53125 C 2.546875 -10.007812 3.03125 -10.375 3.59375 -10.625 C 4.164062 -10.882812 4.789062 -11.015625 5.46875 -11.015625 C 6.15625 -11.015625 6.78125 -10.882812 7.34375 -10.625 C 7.90625 -10.363281 8.390625 -9.992188 8.796875 -9.515625 C 9.210938 -9.035156 9.535156 -8.453125 9.765625 -7.765625 C 9.992188 -7.078125 10.109375 -6.304688 10.109375 -5.453125 C 10.109375 -4.585938 9.992188 -3.804688 9.765625 -3.109375 C 9.535156 -2.410156 9.210938 -1.816406 8.796875 -1.328125 C 8.390625 -0.835938 7.90625 -0.457031 7.34375 -0.1875 C 6.78125 0.0703125 6.15625 0.203125 5.46875 0.203125 Z M 5.46875 -1 C 5.957031 -1 6.394531 -1.101562 6.78125 -1.3125 C 7.175781 -1.519531 7.507812 -1.816406 7.78125 -2.203125 C 8.0625 -2.597656 8.28125 -3.066406 8.4375 -3.609375 C 8.59375 -4.160156 8.671875 -4.773438 8.671875 -5.453125 C 8.671875 -6.128906 8.59375 -6.734375 8.4375 -7.265625 C 8.28125 -7.804688 8.0625 -8.265625 7.78125 -8.640625 C 7.507812 -9.015625 7.175781 -9.300781 6.78125 -9.5 C 6.394531 -9.707031 5.957031 -9.8125 5.46875 -9.8125 C 4.988281 -9.8125 4.550781 -9.707031 4.15625 -9.5 C 3.769531 -9.300781 3.4375 -9.015625 3.15625 -8.640625 C 2.875 -8.265625 2.65625 -7.804688 2.5 -7.265625 C 2.351562 -6.734375 2.28125 -6.128906 2.28125 -5.453125 C 2.28125 -4.773438 2.351562 -4.160156 2.5 -3.609375 C 2.65625 -3.066406 2.875 -2.597656 3.15625 -2.203125 C 3.4375 -1.816406 3.769531 -1.519531 4.15625 -1.3125 C 4.550781 -1.101562 4.988281 -1 5.46875 -1 Z M 5.46875 -1 "/></g></g></g><g fill="#2696c7" fill-opacity="1"><g transform="translate(536.166785, 187.156713)"><g><path d="M 1.484375 0 L 1.484375 -10.8125 L 4.1875 -10.8125 C 5.851562 -10.8125 7.117188 -10.347656 7.984375 -9.421875 C 8.859375 -8.503906 9.296875 -7.179688 9.296875 -5.453125 C 9.296875 -4.597656 9.1875 -3.832031 8.96875 -3.15625 C 8.75 -2.476562 8.425781 -1.90625 8 -1.4375 C 7.570312 -0.96875 7.039062 -0.609375 6.40625 -0.359375 C 5.78125 -0.117188 5.0625 0 4.25 0 Z M 2.859375 -1.125 L 4.09375 -1.125 C 5.351562 -1.125 6.296875 -1.5 6.921875 -2.25 C 7.554688 -3.007812 7.875 -4.078125 7.875 -5.453125 C 7.875 -6.828125 7.554688 -7.875 6.921875 -8.59375 C 6.296875 -9.320312 5.351562 -9.6875 4.09375 -9.6875 L 2.859375 -9.6875 Z M 2.859375 -1.125 "/></g></g></g><g fill="#2696c7" fill-opacity="1"><g transform="translate(546.301986, 187.156713)"><g><path d="M 1.484375 0 L 1.484375 -10.8125 L 7.71875 -10.8125 L 7.71875 -9.65625 L 2.859375 -9.65625 L 2.859375 -6.265625 L 6.953125 -6.265625 L 6.953125 -5.09375 L 2.859375 -5.09375 L 2.859375 -1.171875 L 7.875 -1.171875 L 7.875 0 Z M 1.484375 0 "/></g></g></g><g fill="#2696c7" fill-opacity="1"><g transform="translate(554.986921, 187.156713)"><g><path d="M 3.5 0.203125 C 2.144531 0.203125 1.148438 -0.375 0.515625 -1.53125 L 1.5 -2.21875 C 1.738281 -1.789062 2.007812 -1.476562 2.3125 -1.28125 C 2.625 -1.09375 2.972656 -1 3.359375 -1 C 3.941406 -1 4.375 -1.175781 4.65625 -1.53125 C 4.945312 -1.894531 5.09375 -2.488281 5.09375 -3.3125 L 5.09375 -10.8125 L 6.484375 -10.8125 L 6.484375 -3.1875 C 6.484375 -2.71875 6.421875 -2.273438 6.296875 -1.859375 C 6.179688 -1.453125 6.003906 -1.09375 5.765625 -0.78125 C 5.535156 -0.476562 5.226562 -0.238281 4.84375 -0.0625 C 4.46875 0.113281 4.019531 0.203125 3.5 0.203125 Z M 3.5 0.203125 "/></g></g></g><g fill="#2696c7" fill-opacity="1"><g transform="translate(562.897313, 187.156713)"><g><path d="M 4.484375 0.203125 C 3.722656 0.203125 3.019531 0.0625 2.375 -0.21875 C 1.726562 -0.507812 1.164062 -0.90625 0.6875 -1.40625 L 1.515625 -2.359375 C 1.898438 -1.953125 2.351562 -1.625 2.875 -1.375 C 3.394531 -1.125 3.9375 -1 4.5 -1 C 5.21875 -1 5.773438 -1.160156 6.171875 -1.484375 C 6.566406 -1.816406 6.765625 -2.242188 6.765625 -2.765625 C 6.765625 -3.046875 6.71875 -3.28125 6.625 -3.46875 C 6.53125 -3.664062 6.398438 -3.832031 6.234375 -3.96875 C 6.078125 -4.101562 5.890625 -4.222656 5.671875 -4.328125 C 5.453125 -4.441406 5.21875 -4.5625 4.96875 -4.6875 L 3.40625 -5.359375 C 3.15625 -5.460938 2.894531 -5.59375 2.625 -5.75 C 2.363281 -5.90625 2.128906 -6.09375 1.921875 -6.3125 C 1.710938 -6.53125 1.539062 -6.789062 1.40625 -7.09375 C 1.28125 -7.394531 1.21875 -7.742188 1.21875 -8.140625 C 1.21875 -8.546875 1.300781 -8.925781 1.46875 -9.28125 C 1.644531 -9.632812 1.882812 -9.9375 2.1875 -10.1875 C 2.488281 -10.445312 2.84375 -10.648438 3.25 -10.796875 C 3.664062 -10.941406 4.117188 -11.015625 4.609375 -11.015625 C 5.265625 -11.015625 5.863281 -10.890625 6.40625 -10.640625 C 6.957031 -10.390625 7.425781 -10.066406 7.8125 -9.671875 L 7.078125 -8.78125 C 6.742188 -9.101562 6.375 -9.351562 5.96875 -9.53125 C 5.570312 -9.71875 5.117188 -9.8125 4.609375 -9.8125 C 4.003906 -9.8125 3.519531 -9.671875 3.15625 -9.390625 C 2.789062 -9.109375 2.609375 -8.71875 2.609375 -8.21875 C 2.609375 -7.957031 2.660156 -7.734375 2.765625 -7.546875 C 2.867188 -7.367188 3.003906 -7.210938 3.171875 -7.078125 C 3.347656 -6.941406 3.539062 -6.820312 3.75 -6.71875 C 3.96875 -6.613281 4.1875 -6.515625 4.40625 -6.421875 L 5.9375 -5.765625 C 6.238281 -5.640625 6.523438 -5.488281 6.796875 -5.3125 C 7.078125 -5.144531 7.316406 -4.945312 7.515625 -4.71875 C 7.710938 -4.5 7.867188 -4.238281 7.984375 -3.9375 C 8.097656 -3.632812 8.15625 -3.285156 8.15625 -2.890625 C 8.15625 -2.453125 8.070312 -2.046875 7.90625 -1.671875 C 7.738281 -1.304688 7.492188 -0.984375 7.171875 -0.703125 C 6.847656 -0.421875 6.460938 -0.195312 6.015625 -0.03125 C 5.566406 0.125 5.054688 0.203125 4.484375 0.203125 Z M 4.484375 0.203125 "/></g></g></g></svg>