<svg xmlns="http://www.w3.org/2000/svg" xmlns:xlink="http://www.w3.org/1999/xlink" width="800" zoomAndPan="magnify" viewBox="0 0 600 225" height="300" preserveAspectRatio="xMidYMid meet" version="1.0"><defs><g/><clipPath id="b4016f5b5d"><path d="M 85 121 L 197.96875 121 L 197.96875 197.136719 L 85 197.136719 Z M 85 121 " clip-rule="nonzero"/></clipPath><clipPath id="dd64b12c77"><path d="M 85 27.648438 L 197.96875 27.648438 L 197.96875 104 L 85 104 Z M 85 27.648438 " clip-rule="nonzero"/></clipPath><clipPath id="7240680e86"><path d="M 28.484375 59 L 103 59 L 103 166 L 28.484375 166 Z M 28.484375 59 " clip-rule="nonzero"/></clipPath></defs><g clip-path="url(#b4016f5b5d)"><path fill="#29aae1" d="M 85.617188 192.425781 C 87.121094 192.945312 88.636719 193.421875 90.164062 193.855469 C 91.695312 194.289062 93.234375 194.683594 94.785156 195.03125 C 96.339844 195.378906 97.898438 195.683594 99.464844 195.945312 C 101.035156 196.207031 102.609375 196.421875 104.191406 196.597656 C 105.769531 196.769531 107.355469 196.898438 108.941406 196.984375 C 110.53125 197.066406 112.121094 197.109375 113.710938 197.101562 C 115.300781 197.097656 116.890625 197.050781 118.476562 196.957031 C 120.0625 196.863281 121.648438 196.726562 123.226562 196.542969 C 124.808594 196.363281 126.378906 196.136719 127.945312 195.867188 C 129.515625 195.597656 131.070312 195.285156 132.621094 194.925781 C 134.171875 194.570312 135.707031 194.171875 137.234375 193.726562 C 138.761719 193.285156 140.277344 192.800781 141.773438 192.273438 C 143.273438 191.746094 144.757812 191.175781 146.226562 190.566406 C 147.691406 189.953125 149.140625 189.304688 150.574219 188.613281 C 152.003906 187.921875 153.414062 187.191406 154.804688 186.417969 C 156.191406 185.648438 157.558594 184.839844 158.902344 183.992188 C 160.246094 183.148438 161.566406 182.261719 162.859375 181.34375 C 164.15625 180.421875 165.421875 179.464844 166.664062 178.476562 C 167.902344 177.484375 169.113281 176.457031 170.296875 175.398438 C 171.480469 174.339844 172.632812 173.25 173.753906 172.125 C 174.875 171 175.964844 169.847656 177.019531 168.664062 C 178.074219 167.476562 179.097656 166.265625 180.085938 165.023438 C 181.074219 163.78125 182.027344 162.511719 182.941406 161.21875 C 183.859375 159.921875 184.738281 158.605469 185.578125 157.261719 C 186.421875 155.917969 187.226562 154.550781 187.992188 153.160156 C 188.753906 151.773438 189.480469 150.363281 190.167969 148.933594 C 190.851562 147.503906 191.496094 146.054688 192.101562 144.589844 C 192.707031 143.125 193.269531 141.644531 193.789062 140.144531 C 194.308594 138.648438 194.789062 137.136719 195.222656 135.613281 C 195.660156 134.089844 196.050781 132.554688 196.402344 131.011719 C 196.75 129.464844 197.054688 127.910156 197.316406 126.347656 C 197.578125 124.785156 197.796875 123.214844 197.96875 121.640625 Z M 85.617188 192.425781 " fill-opacity="1" fill-rule="nonzero"/></g><g clip-path="url(#dd64b12c77)"><path fill="#2696c7" d="M 197.96875 103.144531 C 197.796875 101.570312 197.578125 100 197.316406 98.4375 C 197.054688 96.875 196.75 95.320312 196.402344 93.773438 C 196.050781 92.230469 195.660156 90.695312 195.222656 89.171875 C 194.789062 87.644531 194.308594 86.136719 193.789062 84.640625 C 193.269531 83.140625 192.707031 81.660156 192.101562 80.195312 C 191.496094 78.730469 190.851562 77.28125 190.167969 75.851562 C 189.480469 74.421875 188.753906 73.011719 187.992188 71.625 C 187.226562 70.234375 186.421875 68.867188 185.578125 67.523438 C 184.738281 66.179688 183.859375 64.859375 182.941406 63.566406 C 182.027344 62.273438 181.074219 61.003906 180.085938 59.761719 C 179.097656 58.519531 178.074219 57.308594 177.019531 56.121094 C 175.964844 54.9375 174.875 53.785156 173.753906 52.660156 C 172.632812 51.535156 171.480469 50.445312 170.296875 49.386719 C 169.113281 48.328125 167.902344 47.300781 166.664062 46.308594 C 165.421875 45.320312 164.15625 44.363281 162.859375 43.441406 C 161.566406 42.523438 160.246094 41.636719 158.902344 40.792969 C 157.558594 39.945312 156.191406 39.136719 154.804688 38.367188 C 153.414062 37.59375 152.003906 36.863281 150.574219 36.171875 C 149.140625 35.480469 147.691406 34.832031 146.226562 34.21875 C 144.757812 33.609375 143.273438 33.039062 141.773438 32.511719 C 140.277344 31.984375 138.761719 31.5 137.234375 31.058594 C 135.707031 30.613281 134.171875 30.214844 132.621094 29.859375 C 131.070312 29.5 129.515625 29.1875 127.945312 28.917969 C 126.378906 28.648438 124.808594 28.421875 123.226562 28.242188 C 121.648438 28.058594 120.0625 27.921875 118.476562 27.828125 C 116.890625 27.734375 115.300781 27.6875 113.710938 27.683594 C 112.121094 27.675781 110.53125 27.71875 108.941406 27.800781 C 107.355469 27.886719 105.769531 28.015625 104.191406 28.1875 C 102.609375 28.363281 101.035156 28.578125 99.464844 28.839844 C 97.898438 29.101562 96.339844 29.40625 94.785156 29.753906 C 93.234375 30.101562 91.695312 30.496094 90.164062 30.929688 C 88.636719 31.363281 87.121094 31.839844 85.617188 32.359375 Z M 197.96875 103.144531 " fill-opacity="1" fill-rule="nonzero"/></g><path fill="#1b639d" d="M 83.78125 33.019531 C 78.101562 35.136719 72.710938 37.824219 67.605469 41.089844 C 62.503906 44.351562 57.800781 48.117188 53.507812 52.378906 L 148.738281 112.390625 L 53.539062 172.40625 C 57.832031 176.667969 62.527344 180.429688 67.625 183.695312 C 72.722656 186.957031 78.109375 189.648438 83.78125 191.765625 L 166.824219 112.390625 Z M 83.78125 33.019531 " fill-opacity="1" fill-rule="nonzero"/><g clip-path="url(#7240680e86)"><path fill="#2a3d8f" d="M 47.316406 59.242188 C 45.808594 61.105469 44.382812 63.03125 43.039062 65.015625 C 41.691406 67.003906 40.433594 69.042969 39.261719 71.132812 C 38.09375 73.226562 37.011719 75.363281 36.023438 77.546875 C 35.03125 79.730469 34.136719 81.953125 33.339844 84.210938 C 32.539062 86.46875 31.835938 88.757812 31.230469 91.078125 C 30.625 93.394531 30.121094 95.734375 29.714844 98.097656 C 29.308594 100.457031 29.003906 102.832031 28.800781 105.21875 C 28.597656 107.605469 28.496094 109.996094 28.496094 112.390625 C 28.496094 114.789062 28.597656 117.179688 28.800781 119.566406 C 29.003906 121.953125 29.308594 124.328125 29.714844 126.6875 C 30.121094 129.050781 30.625 131.390625 31.230469 133.707031 C 31.835938 136.027344 32.539062 138.316406 33.339844 140.574219 C 34.136719 142.832031 35.03125 145.054688 36.023438 147.238281 C 37.011719 149.421875 38.09375 151.558594 39.261719 153.652344 C 40.433594 155.742188 41.691406 157.78125 43.039062 159.769531 C 44.382812 161.753906 45.808594 163.679688 47.316406 165.542969 L 102.925781 112.390625 Z M 47.316406 59.242188 " fill-opacity="1" fill-rule="nonzero"/></g><g fill="#000000" fill-opacity="1"><g transform="translate(228.656606, 67.001204)"><g><path d="M 9.65625 -27.828125 L 24.9375 -27.828125 C 26.351562 -27.828125 27.398438 -27.054688 28.078125 -25.515625 C 28.109375 -25.316406 28.125 -25.15625 28.125 -25.03125 L 28.125 -23.984375 C 28.125 -22.890625 27.441406 -21.957031 26.078125 -21.1875 C 25.535156 -21.007812 25.09375 -20.921875 24.75 -20.921875 L 7.015625 -20.921875 L 7.015625 -17.421875 L 17.578125 -17.421875 C 21.859375 -17.421875 25.046875 -16.070312 27.140625 -13.375 C 27.796875 -12.34375 28.125 -11.476562 28.125 -10.78125 L 28.125 -6.640625 C 28.125 -5.015625 27.039062 -3.421875 24.875 -1.859375 C 22.789062 -0.617188 20.742188 0 18.734375 0 L 3.046875 0 C 1.984375 0 1.054688 -0.597656 0.265625 -1.796875 C 0.0859375 -2.191406 0 -2.546875 0 -2.859375 L 0 -3.609375 C 0 -5.015625 0.828125 -6.054688 2.484375 -6.734375 C 2.859375 -6.847656 3.285156 -6.90625 3.765625 -6.90625 L 21.171875 -6.90625 L 21.171875 -10.40625 L 10.015625 -10.40625 C 6.910156 -10.40625 4.238281 -11.375 2 -13.3125 C 0.664062 -14.644531 0 -15.992188 0 -17.359375 L 0 -20.875 C 0 -23.15625 1.5625 -25.109375 4.6875 -26.734375 C 6.519531 -27.460938 8.175781 -27.828125 9.65625 -27.828125 Z M 9.65625 -27.828125 "/></g></g></g><g fill="#000000" fill-opacity="1"><g transform="translate(258.732768, 67.001204)"><g><path d="M 3.15625 -27.828125 L 3.703125 -27.828125 C 4.617188 -27.828125 5.632812 -27.203125 6.75 -25.953125 C 11.59375 -21.179688 14.050781 -18.789062 14.125 -18.78125 C 19.84375 -24.507812 22.796875 -27.375 22.984375 -27.375 C 23.535156 -27.675781 24.015625 -27.828125 24.421875 -27.828125 L 24.96875 -27.828125 C 26.195312 -27.828125 27.179688 -27.113281 27.921875 -25.6875 C 28.054688 -25.3125 28.125 -24.984375 28.125 -24.703125 L 28.125 -24.03125 C 28.125 -23.050781 27.28125 -21.851562 25.59375 -20.4375 L 17.5625 -12.5 L 17.5625 -3.234375 C 17.5625 -1.816406 16.710938 -0.757812 15.015625 -0.0625 L 14.453125 0 L 13.671875 0 C 12.535156 0 11.582031 -0.710938 10.8125 -2.140625 C 10.65625 -2.585938 10.578125 -2.96875 10.578125 -3.28125 L 10.578125 -12.5 C 3.878906 -19.082031 0.519531 -22.414062 0.5 -22.5 C 0.164062 -23.132812 0 -23.664062 0 -24.09375 L 0 -24.578125 C 0 -25.859375 0.71875 -26.867188 2.15625 -27.609375 C 2.53125 -27.753906 2.863281 -27.828125 3.15625 -27.828125 Z M 3.15625 -27.828125 "/></g></g></g><g fill="#000000" fill-opacity="1"><g transform="translate(288.808929, 67.001204)"><g><path d="M 3.265625 -27.828125 L 3.765625 -27.828125 C 4.765625 -27.828125 5.78125 -27.242188 6.8125 -26.078125 C 13.332031 -19.660156 18.109375 -14.984375 21.140625 -12.046875 L 21.140625 -24.09375 C 21.140625 -25.832031 21.9375 -27.023438 23.53125 -27.671875 C 23.882812 -27.773438 24.203125 -27.828125 24.484375 -27.828125 L 24.96875 -27.828125 C 26.15625 -27.828125 27.140625 -27.132812 27.921875 -25.75 C 28.054688 -25.320312 28.125 -24.988281 28.125 -24.75 L 28.125 -3 C 28.125 -1.925781 27.460938 -1.015625 26.140625 -0.265625 C 25.765625 -0.0859375 25.414062 0 25.09375 0 L 24.3125 0 C 23.3125 0 22.078125 -0.859375 20.609375 -2.578125 L 6.984375 -15.890625 L 6.984375 -3.34375 C 6.984375 -1.820312 6.109375 -0.726562 4.359375 -0.0625 C 4.171875 -0.0195312 4.007812 0 3.875 0 L 3.109375 0 C 1.929688 0 0.96875 -0.710938 0.21875 -2.140625 C 0.0703125 -2.515625 0 -2.84375 0 -3.125 L 0 -24.578125 C 0 -25.992188 0.828125 -27.035156 2.484375 -27.703125 C 2.765625 -27.785156 3.023438 -27.828125 3.265625 -27.828125 Z M 3.265625 -27.828125 "/></g></g></g><g fill="#000000" fill-opacity="1"><g transform="translate(318.88509, 67.001204)"><g><path d="M 13.859375 -27.828125 L 24.96875 -27.828125 C 26.144531 -27.828125 27.128906 -27.132812 27.921875 -25.75 C 28.054688 -25.320312 28.125 -24.988281 28.125 -24.75 L 28.125 -23.984375 C 28.125 -22.867188 27.425781 -21.9375 26.03125 -21.1875 C 25.582031 -21.007812 25.15625 -20.921875 24.75 -20.921875 L 15.40625 -20.921875 C 11.707031 -20.921875 9.039062 -19.367188 7.40625 -16.265625 C 7.125 -15.410156 6.984375 -14.585938 6.984375 -13.796875 C 6.984375 -11.273438 8.421875 -9.25 11.296875 -7.71875 C 12.554688 -7.175781 13.773438 -6.90625 14.953125 -6.90625 L 24.421875 -6.90625 C 26.234375 -6.90625 27.453125 -6.046875 28.078125 -4.328125 L 28.125 -3.78125 L 28.125 -3 C 28.125 -1.925781 27.460938 -1.015625 26.140625 -0.265625 C 25.765625 -0.0859375 25.414062 0 25.09375 0 L 13.5 0 C 10.457031 0 7.472656 -1.222656 4.546875 -3.671875 C 2.867188 -5.359375 1.851562 -6.6875 1.5 -7.65625 C 0.5 -9.632812 0 -11.539062 0 -13.375 L 0 -14.390625 C 0 -17.703125 1.382812 -20.828125 4.15625 -23.765625 C 7.125 -26.472656 10.359375 -27.828125 13.859375 -27.828125 Z M 13.859375 -27.828125 "/></g></g></g><g fill="#000000" fill-opacity="1"><g transform="translate(358.81847, 67.001204)"><g><path d="M 3.265625 -27.828125 L 19.828125 -27.828125 C 22.191406 -27.828125 24.367188 -26.710938 26.359375 -24.484375 C 27.535156 -22.785156 28.125 -21.195312 28.125 -19.71875 L 28.125 -18.5625 C 28.125 -16.300781 27 -14.179688 24.75 -12.203125 C 23.382812 -11.328125 22.296875 -10.816406 21.484375 -10.671875 L 21.484375 -10.625 C 24.347656 -8.082031 26.234375 -6.3125 27.140625 -5.3125 C 27.546875 -4.644531 27.75 -4.003906 27.75 -3.390625 C 27.75 -1.929688 26.929688 -0.835938 25.296875 -0.109375 C 24.972656 -0.0351562 24.734375 0 24.578125 0 L 23.8125 0 C 22.90625 0 21.707031 -0.800781 20.21875 -2.40625 C 19.695312 -2.832031 16.757812 -5.515625 11.40625 -10.453125 L 6.984375 -10.453125 L 6.984375 -3.34375 C 6.984375 -1.820312 6.109375 -0.726562 4.359375 -0.0625 C 4.171875 -0.0195312 4.007812 0 3.875 0 L 3.109375 0 C 1.929688 0 0.96875 -0.710938 0.21875 -2.140625 C 0.0703125 -2.515625 0 -2.84375 0 -3.125 L 0 -24.578125 C 0 -25.992188 0.828125 -27.035156 2.484375 -27.703125 C 2.765625 -27.785156 3.023438 -27.828125 3.265625 -27.828125 Z M 6.984375 -20.921875 L 6.984375 -17.3125 L 21.140625 -17.3125 L 21.140625 -20.921875 Z M 6.984375 -20.921875 "/></g></g></g><g fill="#000000" fill-opacity="1"><g transform="translate(388.894631, 67.001204)"><g><path d="M 3.265625 -27.828125 L 24.96875 -27.828125 C 26.15625 -27.828125 27.140625 -27.132812 27.921875 -25.75 C 28.054688 -25.320312 28.125 -24.988281 28.125 -24.75 L 28.125 -23.984375 C 28.125 -22.867188 27.425781 -21.9375 26.03125 -21.1875 C 25.582031 -21.007812 25.15625 -20.921875 24.75 -20.921875 L 6.984375 -20.921875 L 6.984375 -17.359375 L 20.71875 -17.359375 C 22.46875 -17.359375 23.644531 -16.664062 24.25 -15.28125 C 24.4375 -14.882812 24.53125 -14.519531 24.53125 -14.1875 L 24.53125 -13.703125 C 24.53125 -12.285156 23.703125 -11.242188 22.046875 -10.578125 C 21.765625 -10.492188 21.503906 -10.453125 21.265625 -10.453125 L 6.984375 -10.453125 L 6.984375 -6.90625 L 24.375 -6.90625 C 26.414062 -6.90625 27.664062 -5.914062 28.125 -3.9375 L 28.125 -3 C 28.125 -1.925781 27.460938 -1.015625 26.140625 -0.265625 C 25.765625 -0.0859375 25.414062 0 25.09375 0 L 3.109375 0 C 1.929688 0 0.96875 -0.710938 0.21875 -2.140625 C 0.0703125 -2.515625 0 -2.84375 0 -3.125 L 0 -24.578125 C 0 -25.992188 0.828125 -27.035156 2.484375 -27.703125 C 2.765625 -27.785156 3.023438 -27.828125 3.265625 -27.828125 Z M 3.265625 -27.828125 "/></g></g></g><g fill="#000000" fill-opacity="1"><g transform="translate(418.970792, 67.001204)"><g><path d="M 9.6875 -27.828125 L 18.359375 -27.828125 C 21.796875 -27.828125 24.664062 -26.582031 26.96875 -24.09375 C 27.738281 -22.914062 28.125 -21.929688 28.125 -21.140625 L 28.125 -6.671875 C 28.125 -5.253906 27.222656 -3.78125 25.421875 -2.25 C 23.191406 -0.75 20.773438 0 18.171875 0 L 10.046875 0 C 6.898438 0 4.21875 -0.960938 2 -2.890625 C 0.664062 -4.222656 0 -5.578125 0 -6.953125 L 0 -20.875 C 0 -23.164062 1.5625 -25.117188 4.6875 -26.734375 C 6.519531 -27.460938 8.1875 -27.828125 9.6875 -27.828125 Z M 6.75 -20.9375 L 6.75 -6.890625 L 16.203125 -6.890625 C 14.828125 -8.128906 14.140625 -9.09375 14.140625 -9.78125 C 14.085938 -9.78125 14.054688 -10.019531 14.046875 -10.5 C 14.046875 -11.9375 14.816406 -13.007812 16.359375 -13.71875 C 16.703125 -13.832031 17.019531 -13.890625 17.3125 -13.890625 L 17.796875 -13.890625 C 18.773438 -13.890625 19.898438 -13.140625 21.171875 -11.640625 L 21.375 -11.484375 L 21.375 -20.9375 Z M 6.75 -20.9375 "/></g></g></g><g fill="#000000" fill-opacity="1"><g transform="translate(449.046953, 67.001204)"><g><path d="M 3.265625 -27.828125 L 3.765625 -27.828125 C 4.910156 -27.828125 5.875 -27.164062 6.65625 -25.84375 C 6.875 -25.414062 6.984375 -24.90625 6.984375 -24.3125 L 6.984375 -15.28125 C 6.984375 -11.820312 8.367188 -9.265625 11.140625 -7.609375 C 12.078125 -7.140625 12.960938 -6.90625 13.796875 -6.90625 L 14.28125 -6.90625 C 16.476562 -6.90625 18.347656 -8.054688 19.890625 -10.359375 C 20.722656 -11.765625 21.140625 -13.257812 21.140625 -14.84375 L 21.140625 -23.9375 C 21.140625 -25.738281 21.882812 -26.960938 23.375 -27.609375 C 23.789062 -27.753906 24.160156 -27.828125 24.484375 -27.828125 L 24.96875 -27.828125 C 26.15625 -27.828125 27.140625 -27.132812 27.921875 -25.75 C 28.054688 -25.320312 28.125 -24.988281 28.125 -24.75 L 28.125 -13.25 C 28.125 -10.582031 27.039062 -7.804688 24.875 -4.921875 C 22.851562 -2.660156 20.414062 -1.148438 17.5625 -0.390625 C 16.519531 -0.128906 15.59375 0 14.78125 0 L 13.296875 0 C 10.546875 0 7.738281 -1.113281 4.875 -3.34375 C 2.851562 -5.351562 1.6875 -6.90625 1.375 -8 C 0.457031 -9.894531 0 -11.734375 0 -13.515625 L 0 -24.578125 C 0 -25.992188 0.828125 -27.035156 2.484375 -27.703125 C 2.765625 -27.785156 3.023438 -27.828125 3.265625 -27.828125 Z M 3.265625 -27.828125 "/></g></g></g><g fill="#000000" fill-opacity="1"><g transform="translate(479.123114, 67.001204)"><g><path d="M 3.265625 -27.828125 L 24.96875 -27.828125 C 26.15625 -27.828125 27.140625 -27.132812 27.921875 -25.75 C 28.054688 -25.320312 28.125 -24.988281 28.125 -24.75 L 28.125 -23.984375 C 28.125 -22.867188 27.425781 -21.9375 26.03125 -21.1875 C 25.582031 -21.007812 25.15625 -20.921875 24.75 -20.921875 L 6.984375 -20.921875 L 6.984375 -17.359375 L 20.71875 -17.359375 C 22.46875 -17.359375 23.644531 -16.664062 24.25 -15.28125 C 24.4375 -14.882812 24.53125 -14.519531 24.53125 -14.1875 L 24.53125 -13.703125 C 24.53125 -12.285156 23.703125 -11.242188 22.046875 -10.578125 C 21.765625 -10.492188 21.503906 -10.453125 21.265625 -10.453125 L 6.984375 -10.453125 L 6.984375 -6.90625 L 24.375 -6.90625 C 26.414062 -6.90625 27.664062 -5.914062 28.125 -3.9375 L 28.125 -3 C 28.125 -1.925781 27.460938 -1.015625 26.140625 -0.265625 C 25.765625 -0.0859375 25.414062 0 25.09375 0 L 3.109375 0 C 1.929688 0 0.96875 -0.710938 0.21875 -2.140625 C 0.0703125 -2.515625 0 -2.84375 0 -3.125 L 0 -24.578125 C 0 -25.992188 0.828125 -27.035156 2.484375 -27.703125 C 2.765625 -27.785156 3.023438 -27.828125 3.265625 -27.828125 Z M 3.265625 -27.828125 "/></g></g></g><g fill="#000000" fill-opacity="1"><g transform="translate(509.199275, 67.001204)"><g><path d="M 9.65625 -27.828125 L 24.9375 -27.828125 C 26.351562 -27.828125 27.398438 -27.054688 28.078125 -25.515625 C 28.109375 -25.316406 28.125 -25.15625 28.125 -25.03125 L 28.125 -23.984375 C 28.125 -22.890625 27.441406 -21.957031 26.078125 -21.1875 C 25.535156 -21.007812 25.09375 -20.921875 24.75 -20.921875 L 7.015625 -20.921875 L 7.015625 -17.421875 L 17.578125 -17.421875 C 21.859375 -17.421875 25.046875 -16.070312 27.140625 -13.375 C 27.796875 -12.34375 28.125 -11.476562 28.125 -10.78125 L 28.125 -6.640625 C 28.125 -5.015625 27.039062 -3.421875 24.875 -1.859375 C 22.789062 -0.617188 20.742188 0 18.734375 0 L 3.046875 0 C 1.984375 0 1.054688 -0.597656 0.265625 -1.796875 C 0.0859375 -2.191406 0 -2.546875 0 -2.859375 L 0 -3.609375 C 0 -5.015625 0.828125 -6.054688 2.484375 -6.734375 C 2.859375 -6.847656 3.285156 -6.90625 3.765625 -6.90625 L 21.171875 -6.90625 L 21.171875 -10.40625 L 10.015625 -10.40625 C 6.910156 -10.40625 4.238281 -11.375 2 -13.3125 C 0.664062 -14.644531 0 -15.992188 0 -17.359375 L 0 -20.875 C 0 -23.15625 1.5625 -25.109375 4.6875 -26.734375 C 6.519531 -27.460938 8.175781 -27.828125 9.65625 -27.828125 Z M 9.65625 -27.828125 "/></g></g></g><g fill="#000000" fill-opacity="1"><g transform="translate(539.275436, 67.001204)"><g><path d="M 3.265625 -27.828125 L 24.96875 -27.828125 C 26.15625 -27.828125 27.140625 -27.132812 27.921875 -25.75 C 28.054688 -25.320312 28.125 -24.988281 28.125 -24.75 L 28.125 -23.984375 C 28.125 -22.867188 27.425781 -21.9375 26.03125 -21.1875 C 25.582031 -21.007812 25.15625 -20.921875 24.75 -20.921875 L 17.5625 -20.921875 L 17.5625 -3.234375 C 17.5625 -1.804688 16.710938 -0.75 15.015625 -0.0625 L 14.453125 0 L 13.671875 0 C 12.546875 0 11.601562 -0.691406 10.84375 -2.078125 C 10.664062 -2.523438 10.578125 -2.945312 10.578125 -3.34375 L 10.578125 -20.921875 L 3.546875 -20.921875 C 1.910156 -20.921875 0.765625 -21.738281 0.109375 -23.375 C 0.0351562 -23.71875 0 -23.957031 0 -24.09375 L 0 -24.578125 C 0 -25.992188 0.828125 -27.035156 2.484375 -27.703125 C 2.765625 -27.785156 3.023438 -27.828125 3.265625 -27.828125 Z M 3.265625 -27.828125 "/></g></g></g><g fill="#000000" fill-opacity="1"><g transform="translate(228.656606, 156.41852)"><g><path d="M 39.140625 -78.59375 L 70.546875 -78.59375 C 73.867188 -78.59375 76.644531 -76.640625 78.875 -72.734375 C 79.269531 -71.523438 79.46875 -70.59375 79.46875 -69.9375 L 79.46875 -67.75 C 79.46875 -64.601562 77.492188 -61.972656 73.546875 -59.859375 C 72.273438 -59.335938 71.070312 -59.078125 69.9375 -59.078125 L 43.515625 -59.078125 C 33.066406 -59.078125 25.539062 -54.695312 20.9375 -45.9375 C 20.132812 -43.519531 19.734375 -41.195312 19.734375 -38.96875 C 19.734375 -31.84375 23.789062 -26.125 31.90625 -21.8125 C 35.476562 -20.28125 38.929688 -19.515625 42.265625 -19.515625 L 69 -19.515625 C 74.113281 -19.515625 77.550781 -17.082031 79.3125 -12.21875 L 79.46875 -10.6875 L 79.46875 -8.5 C 79.46875 -5.46875 77.585938 -2.890625 73.828125 -0.765625 C 72.765625 -0.253906 71.78125 0 70.875 0 L 38.140625 0 C 29.554688 0 21.117188 -3.453125 12.828125 -10.359375 C 8.109375 -15.148438 5.238281 -18.914062 4.21875 -21.65625 C 1.40625 -27.238281 0 -32.609375 0 -37.765625 L 0 -40.671875 C 0 -50.023438 3.910156 -58.847656 11.734375 -67.140625 C 20.128906 -74.773438 29.265625 -78.59375 39.140625 -78.59375 Z M 39.140625 -78.59375 "/></g></g><g transform="translate(313.605966, 156.41852)"><g><path d="M 9.203125 -78.59375 L 10.640625 -78.59375 C 13.890625 -78.59375 16.609375 -76.726562 18.796875 -73 C 19.421875 -71.800781 19.734375 -70.359375 19.734375 -68.671875 L 19.734375 -43.1875 C 19.734375 -33.394531 23.640625 -26.160156 31.453125 -21.484375 C 34.128906 -20.171875 36.632812 -19.515625 38.96875 -19.515625 L 40.34375 -19.515625 C 46.550781 -19.515625 51.832031 -22.765625 56.1875 -29.265625 C 58.5625 -33.253906 59.75 -37.472656 59.75 -41.921875 L 59.75 -67.640625 C 59.75 -72.710938 61.847656 -76.164062 66.046875 -78 C 67.210938 -78.394531 68.253906 -78.59375 69.171875 -78.59375 L 70.546875 -78.59375 C 73.898438 -78.59375 76.675781 -76.640625 78.875 -72.734375 C 79.269531 -71.523438 79.46875 -70.59375 79.46875 -69.9375 L 79.46875 -37.4375 C 79.46875 -29.90625 76.398438 -22.066406 70.265625 -13.921875 C 64.566406 -7.523438 57.679688 -3.25 49.609375 -1.09375 C 46.679688 -0.363281 44.066406 0 41.765625 0 L 37.546875 0 C 29.796875 0 21.863281 -3.140625 13.75 -9.421875 C 8.050781 -15.128906 4.765625 -19.515625 3.890625 -22.578125 C 1.296875 -27.953125 0 -33.160156 0 -38.203125 L 0 -69.4375 C 0 -73.425781 2.335938 -76.367188 7.015625 -78.265625 C 7.816406 -78.484375 8.546875 -78.59375 9.203125 -78.59375 Z M 9.203125 -78.59375 "/></g></g><g transform="translate(398.555325, 156.41852)"><g><path d="M 9.203125 -78.59375 L 56.015625 -78.59375 C 62.703125 -78.59375 68.859375 -75.453125 74.484375 -69.171875 C 77.804688 -64.378906 79.46875 -59.882812 79.46875 -55.6875 L 79.46875 -52.453125 C 79.46875 -46.054688 76.289062 -40.0625 69.9375 -34.46875 C 66.0625 -31.988281 62.972656 -30.546875 60.671875 -30.140625 L 60.671875 -30.03125 C 68.785156 -22.832031 74.117188 -17.828125 76.671875 -15.015625 C 77.804688 -13.117188 78.375 -11.3125 78.375 -9.59375 C 78.375 -5.457031 76.070312 -2.367188 71.46875 -0.328125 C 70.550781 -0.109375 69.875 0 69.4375 0 L 67.25 0 C 64.695312 0 61.316406 -2.265625 57.109375 -6.796875 C 55.648438 -8.003906 47.359375 -15.585938 32.234375 -29.546875 L 19.734375 -29.546875 L 19.734375 -9.421875 C 19.734375 -5.148438 17.265625 -2.066406 12.328125 -0.171875 C 11.785156 -0.0546875 11.332031 0 10.96875 0 L 8.765625 0 C 5.441406 0 2.722656 -2.007812 0.609375 -6.03125 C 0.203125 -7.09375 0 -8.023438 0 -8.828125 L 0 -69.4375 C 0 -73.425781 2.335938 -76.367188 7.015625 -78.265625 C 7.816406 -78.484375 8.546875 -78.59375 9.203125 -78.59375 Z M 19.734375 -59.078125 L 19.734375 -48.890625 L 59.75 -48.890625 L 59.75 -59.078125 Z M 19.734375 -59.078125 "/></g></g><g transform="translate(483.504684, 156.41852)"><g><path d="M 9.203125 -78.59375 L 10.640625 -78.59375 C 13.890625 -78.59375 16.609375 -76.726562 18.796875 -73 C 19.421875 -71.800781 19.734375 -70.359375 19.734375 -68.671875 L 19.734375 -19.515625 L 68.84375 -19.515625 C 74.613281 -19.515625 78.15625 -16.71875 79.46875 -11.125 L 79.46875 -8.5 C 79.46875 -5.46875 77.585938 -2.890625 73.828125 -0.765625 C 72.765625 -0.253906 71.78125 0 70.875 0 L 8.765625 0 C 5.441406 0 2.722656 -2.007812 0.609375 -6.03125 C 0.203125 -7.09375 0 -8.023438 0 -8.828125 L 0 -69.4375 C 0 -73.425781 2.335938 -76.367188 7.015625 -78.265625 C 7.816406 -78.484375 8.546875 -78.59375 9.203125 -78.59375 Z M 9.203125 -78.59375 "/></g></g></g><g fill="#000000" fill-opacity="1"><g transform="translate(228.656606, 184.958126)"><g><path d="M 4.359375 0.1875 C 3.617188 0.1875 2.929688 0.0507812 2.296875 -0.21875 C 1.671875 -0.5 1.128906 -0.878906 0.671875 -1.359375 L 1.46875 -2.28125 C 1.84375 -1.894531 2.28125 -1.578125 2.78125 -1.328125 C 3.289062 -1.085938 3.820312 -0.96875 4.375 -0.96875 C 5.0625 -0.96875 5.597656 -1.125 5.984375 -1.4375 C 6.367188 -1.757812 6.5625 -2.175781 6.5625 -2.6875 C 6.5625 -2.957031 6.515625 -3.179688 6.421875 -3.359375 C 6.328125 -3.546875 6.203125 -3.707031 6.046875 -3.84375 C 5.898438 -3.976562 5.71875 -4.097656 5.5 -4.203125 C 5.289062 -4.316406 5.0625 -4.429688 4.8125 -4.546875 L 3.3125 -5.203125 C 3.0625 -5.304688 2.804688 -5.429688 2.546875 -5.578125 C 2.296875 -5.734375 2.066406 -5.914062 1.859375 -6.125 C 1.660156 -6.34375 1.5 -6.597656 1.375 -6.890625 C 1.25 -7.179688 1.1875 -7.519531 1.1875 -7.90625 C 1.1875 -8.300781 1.269531 -8.664062 1.4375 -9 C 1.601562 -9.34375 1.832031 -9.640625 2.125 -9.890625 C 2.414062 -10.140625 2.757812 -10.332031 3.15625 -10.46875 C 3.5625 -10.613281 4.003906 -10.6875 4.484375 -10.6875 C 5.109375 -10.6875 5.6875 -10.566406 6.21875 -10.328125 C 6.757812 -10.085938 7.210938 -9.773438 7.578125 -9.390625 L 6.859375 -8.53125 C 6.546875 -8.832031 6.191406 -9.070312 5.796875 -9.25 C 5.410156 -9.425781 4.972656 -9.515625 4.484375 -9.515625 C 3.890625 -9.515625 3.414062 -9.378906 3.0625 -9.109375 C 2.707031 -8.835938 2.53125 -8.460938 2.53125 -7.984375 C 2.53125 -7.722656 2.578125 -7.503906 2.671875 -7.328125 C 2.773438 -7.160156 2.910156 -7.007812 3.078125 -6.875 C 3.253906 -6.738281 3.441406 -6.617188 3.640625 -6.515625 C 3.847656 -6.421875 4.054688 -6.328125 4.265625 -6.234375 L 5.765625 -5.59375 C 6.054688 -5.46875 6.335938 -5.320312 6.609375 -5.15625 C 6.878906 -4.988281 7.109375 -4.796875 7.296875 -4.578125 C 7.484375 -4.359375 7.632812 -4.101562 7.75 -3.8125 C 7.863281 -3.519531 7.921875 -3.179688 7.921875 -2.796875 C 7.921875 -2.378906 7.835938 -1.988281 7.671875 -1.625 C 7.503906 -1.269531 7.265625 -0.953125 6.953125 -0.671875 C 6.648438 -0.398438 6.28125 -0.1875 5.84375 -0.03125 C 5.40625 0.113281 4.910156 0.1875 4.359375 0.1875 Z M 4.359375 0.1875 "/></g></g></g><g fill="#000000" fill-opacity="1"><g transform="translate(237.197751, 184.958126)"><g><path d="M 1.4375 0 L 1.4375 -10.5 L 7.484375 -10.5 L 7.484375 -9.375 L 2.765625 -9.375 L 2.765625 -6.078125 L 6.75 -6.078125 L 6.75 -4.9375 L 2.765625 -4.9375 L 2.765625 -1.140625 L 7.640625 -1.140625 L 7.640625 0 Z M 1.4375 0 "/></g></g></g><g fill="#000000" fill-opacity="1"><g transform="translate(245.626919, 184.958126)"><g><path d="M 1.4375 0 L 1.4375 -10.5 L 2.8125 -10.5 L 6.609375 -3.90625 L 7.75 -1.734375 L 7.8125 -1.734375 C 7.78125 -2.265625 7.742188 -2.8125 7.703125 -3.375 C 7.660156 -3.945312 7.640625 -4.515625 7.640625 -5.078125 L 7.640625 -10.5 L 8.90625 -10.5 L 8.90625 0 L 7.53125 0 L 3.734375 -6.609375 L 2.59375 -8.765625 L 2.53125 -8.765625 C 2.570312 -8.234375 2.609375 -7.691406 2.640625 -7.140625 C 2.679688 -6.585938 2.703125 -6.035156 2.703125 -5.484375 L 2.703125 0 Z M 1.4375 0 "/></g></g></g><g fill="#000000" fill-opacity="1"><g transform="translate(255.975447, 184.958126)"><g><path d="M 1.4375 0 L 1.4375 -10.5 L 4.0625 -10.5 C 5.6875 -10.5 6.921875 -10.050781 7.765625 -9.15625 C 8.609375 -8.257812 9.03125 -6.972656 9.03125 -5.296875 C 9.03125 -4.460938 8.921875 -3.71875 8.703125 -3.0625 C 8.492188 -2.40625 8.179688 -1.847656 7.765625 -1.390625 C 7.347656 -0.941406 6.832031 -0.597656 6.21875 -0.359375 C 5.613281 -0.117188 4.914062 0 4.125 0 Z M 2.765625 -1.09375 L 3.96875 -1.09375 C 5.195312 -1.09375 6.113281 -1.457031 6.71875 -2.1875 C 7.332031 -2.925781 7.640625 -3.960938 7.640625 -5.296875 C 7.640625 -6.628906 7.332031 -7.644531 6.71875 -8.34375 C 6.113281 -9.050781 5.195312 -9.40625 3.96875 -9.40625 L 2.765625 -9.40625 Z M 2.765625 -1.09375 "/></g></g></g><g fill="#000000" fill-opacity="1"><g transform="translate(265.812154, 184.958126)"><g/></g></g><g fill="#000000" fill-opacity="1"><g transform="translate(269.01108, 184.958126)"><g><path d="M 1.4375 0 L 1.4375 -10.5 L 7.484375 -10.5 L 7.484375 -9.375 L 2.765625 -9.375 L 2.765625 -5.828125 L 6.765625 -5.828125 L 6.765625 -4.703125 L 2.765625 -4.703125 L 2.765625 0 Z M 1.4375 0 "/></g></g></g><g fill="#000000" fill-opacity="1"><g transform="translate(276.912432, 184.958126)"><g><path d="M 3.25 -5.875 L 2.75 -4.265625 L 5.90625 -4.265625 L 5.40625 -5.875 C 5.21875 -6.457031 5.035156 -7.039062 4.859375 -7.625 C 4.691406 -8.207031 4.523438 -8.800781 4.359375 -9.40625 L 4.28125 -9.40625 C 4.125 -8.800781 3.957031 -8.207031 3.78125 -7.625 C 3.613281 -7.039062 3.4375 -6.457031 3.25 -5.875 Z M 0.046875 0 L 3.59375 -10.5 L 5.109375 -10.5 L 8.65625 0 L 7.234375 0 L 6.234375 -3.203125 L 2.421875 -3.203125 L 1.40625 0 Z M 0.046875 0 "/></g></g></g><g fill="#000000" fill-opacity="1"><g transform="translate(285.613524, 184.958126)"><g><path d="M 4.359375 0.1875 C 3.617188 0.1875 2.929688 0.0507812 2.296875 -0.21875 C 1.671875 -0.5 1.128906 -0.878906 0.671875 -1.359375 L 1.46875 -2.28125 C 1.84375 -1.894531 2.28125 -1.578125 2.78125 -1.328125 C 3.289062 -1.085938 3.820312 -0.96875 4.375 -0.96875 C 5.0625 -0.96875 5.597656 -1.125 5.984375 -1.4375 C 6.367188 -1.757812 6.5625 -2.175781 6.5625 -2.6875 C 6.5625 -2.957031 6.515625 -3.179688 6.421875 -3.359375 C 6.328125 -3.546875 6.203125 -3.707031 6.046875 -3.84375 C 5.898438 -3.976562 5.71875 -4.097656 5.5 -4.203125 C 5.289062 -4.316406 5.0625 -4.429688 4.8125 -4.546875 L 3.3125 -5.203125 C 3.0625 -5.304688 2.804688 -5.429688 2.546875 -5.578125 C 2.296875 -5.734375 2.066406 -5.914062 1.859375 -6.125 C 1.660156 -6.34375 1.5 -6.597656 1.375 -6.890625 C 1.25 -7.179688 1.1875 -7.519531 1.1875 -7.90625 C 1.1875 -8.300781 1.269531 -8.664062 1.4375 -9 C 1.601562 -9.34375 1.832031 -9.640625 2.125 -9.890625 C 2.414062 -10.140625 2.757812 -10.332031 3.15625 -10.46875 C 3.5625 -10.613281 4.003906 -10.6875 4.484375 -10.6875 C 5.109375 -10.6875 5.6875 -10.566406 6.21875 -10.328125 C 6.757812 -10.085938 7.210938 -9.773438 7.578125 -9.390625 L 6.859375 -8.53125 C 6.546875 -8.832031 6.191406 -9.070312 5.796875 -9.25 C 5.410156 -9.425781 4.972656 -9.515625 4.484375 -9.515625 C 3.890625 -9.515625 3.414062 -9.378906 3.0625 -9.109375 C 2.707031 -8.835938 2.53125 -8.460938 2.53125 -7.984375 C 2.53125 -7.722656 2.578125 -7.503906 2.671875 -7.328125 C 2.773438 -7.160156 2.910156 -7.007812 3.078125 -6.875 C 3.253906 -6.738281 3.441406 -6.617188 3.640625 -6.515625 C 3.847656 -6.421875 4.054688 -6.328125 4.265625 -6.234375 L 5.765625 -5.59375 C 6.054688 -5.46875 6.335938 -5.320312 6.609375 -5.15625 C 6.878906 -4.988281 7.109375 -4.796875 7.296875 -4.578125 C 7.484375 -4.359375 7.632812 -4.101562 7.75 -3.8125 C 7.863281 -3.519531 7.921875 -3.179688 7.921875 -2.796875 C 7.921875 -2.378906 7.835938 -1.988281 7.671875 -1.625 C 7.503906 -1.269531 7.265625 -0.953125 6.953125 -0.671875 C 6.648438 -0.398438 6.28125 -0.1875 5.84375 -0.03125 C 5.40625 0.113281 4.910156 0.1875 4.359375 0.1875 Z M 4.359375 0.1875 "/></g></g></g><g fill="#000000" fill-opacity="1"><g transform="translate(294.154669, 184.958126)"><g><path d="M 3.609375 0 L 3.609375 -9.375 L 0.453125 -9.375 L 0.453125 -10.5 L 8.125 -10.5 L 8.125 -9.375 L 4.953125 -9.375 L 4.953125 0 Z M 3.609375 0 "/></g></g></g><g fill="#000000" fill-opacity="1"><g transform="translate(302.727789, 184.958126)"><g/></g></g><g fill="#000000" fill-opacity="1"><g transform="translate(305.926714, 184.958126)"><g><path d="M 4.359375 0.1875 C 3.617188 0.1875 2.929688 0.0507812 2.296875 -0.21875 C 1.671875 -0.5 1.128906 -0.878906 0.671875 -1.359375 L 1.46875 -2.28125 C 1.84375 -1.894531 2.28125 -1.578125 2.78125 -1.328125 C 3.289062 -1.085938 3.820312 -0.96875 4.375 -0.96875 C 5.0625 -0.96875 5.597656 -1.125 5.984375 -1.4375 C 6.367188 -1.757812 6.5625 -2.175781 6.5625 -2.6875 C 6.5625 -2.957031 6.515625 -3.179688 6.421875 -3.359375 C 6.328125 -3.546875 6.203125 -3.707031 6.046875 -3.84375 C 5.898438 -3.976562 5.71875 -4.097656 5.5 -4.203125 C 5.289062 -4.316406 5.0625 -4.429688 4.8125 -4.546875 L 3.3125 -5.203125 C 3.0625 -5.304688 2.804688 -5.429688 2.546875 -5.578125 C 2.296875 -5.734375 2.066406 -5.914062 1.859375 -6.125 C 1.660156 -6.34375 1.5 -6.597656 1.375 -6.890625 C 1.25 -7.179688 1.1875 -7.519531 1.1875 -7.90625 C 1.1875 -8.300781 1.269531 -8.664062 1.4375 -9 C 1.601562 -9.34375 1.832031 -9.640625 2.125 -9.890625 C 2.414062 -10.140625 2.757812 -10.332031 3.15625 -10.46875 C 3.5625 -10.613281 4.003906 -10.6875 4.484375 -10.6875 C 5.109375 -10.6875 5.6875 -10.566406 6.21875 -10.328125 C 6.757812 -10.085938 7.210938 -9.773438 7.578125 -9.390625 L 6.859375 -8.53125 C 6.546875 -8.832031 6.191406 -9.070312 5.796875 -9.25 C 5.410156 -9.425781 4.972656 -9.515625 4.484375 -9.515625 C 3.890625 -9.515625 3.414062 -9.378906 3.0625 -9.109375 C 2.707031 -8.835938 2.53125 -8.460938 2.53125 -7.984375 C 2.53125 -7.722656 2.578125 -7.503906 2.671875 -7.328125 C 2.773438 -7.160156 2.910156 -7.007812 3.078125 -6.875 C 3.253906 -6.738281 3.441406 -6.617188 3.640625 -6.515625 C 3.847656 -6.421875 4.054688 -6.328125 4.265625 -6.234375 L 5.765625 -5.59375 C 6.054688 -5.46875 6.335938 -5.320312 6.609375 -5.15625 C 6.878906 -4.988281 7.109375 -4.796875 7.296875 -4.578125 C 7.484375 -4.359375 7.632812 -4.101562 7.75 -3.8125 C 7.863281 -3.519531 7.921875 -3.179688 7.921875 -2.796875 C 7.921875 -2.378906 7.835938 -1.988281 7.671875 -1.625 C 7.503906 -1.269531 7.265625 -0.953125 6.953125 -0.671875 C 6.648438 -0.398438 6.28125 -0.1875 5.84375 -0.03125 C 5.40625 0.113281 4.910156 0.1875 4.359375 0.1875 Z M 4.359375 0.1875 "/></g></g></g><g fill="#000000" fill-opacity="1"><g transform="translate(314.467859, 184.958126)"><g><path d="M 3.140625 0 L 3.140625 -4.0625 L -0.015625 -10.5 L 1.40625 -10.5 L 2.765625 -7.53125 C 2.941406 -7.144531 3.109375 -6.765625 3.265625 -6.390625 C 3.421875 -6.023438 3.59375 -5.644531 3.78125 -5.25 L 3.84375 -5.25 C 4.019531 -5.644531 4.195312 -6.023438 4.375 -6.390625 C 4.5625 -6.765625 4.734375 -7.144531 4.890625 -7.53125 L 6.234375 -10.5 L 7.625 -10.5 L 4.484375 -4.0625 L 4.484375 0 Z M 3.140625 0 "/></g></g></g><g fill="#000000" fill-opacity="1"><g transform="translate(322.081308, 184.958126)"><g><path d="M 1.4375 0 L 1.4375 -10.5 L 2.8125 -10.5 L 6.609375 -3.90625 L 7.75 -1.734375 L 7.8125 -1.734375 C 7.78125 -2.265625 7.742188 -2.8125 7.703125 -3.375 C 7.660156 -3.945312 7.640625 -4.515625 7.640625 -5.078125 L 7.640625 -10.5 L 8.90625 -10.5 L 8.90625 0 L 7.53125 0 L 3.734375 -6.609375 L 2.59375 -8.765625 L 2.53125 -8.765625 C 2.570312 -8.234375 2.609375 -7.691406 2.640625 -7.140625 C 2.679688 -6.585938 2.703125 -6.035156 2.703125 -5.484375 L 2.703125 0 Z M 1.4375 0 "/></g></g></g><g fill="#000000" fill-opacity="1"><g transform="translate(332.429835, 184.958126)"><g><path d="M 5.40625 0.1875 C 4.75 0.1875 4.140625 0.0664062 3.578125 -0.171875 C 3.023438 -0.421875 2.539062 -0.773438 2.125 -1.234375 C 1.71875 -1.703125 1.398438 -2.273438 1.171875 -2.953125 C 0.941406 -3.628906 0.828125 -4.394531 0.828125 -5.25 C 0.828125 -6.09375 0.941406 -6.847656 1.171875 -7.515625 C 1.410156 -8.191406 1.738281 -8.765625 2.15625 -9.234375 C 2.570312 -9.703125 3.0625 -10.0625 3.625 -10.3125 C 4.195312 -10.5625 4.816406 -10.6875 5.484375 -10.6875 C 6.128906 -10.6875 6.691406 -10.554688 7.171875 -10.296875 C 7.660156 -10.035156 8.0625 -9.734375 8.375 -9.390625 L 7.640625 -8.53125 C 7.367188 -8.820312 7.054688 -9.054688 6.703125 -9.234375 C 6.347656 -9.421875 5.945312 -9.515625 5.5 -9.515625 C 5 -9.515625 4.546875 -9.414062 4.140625 -9.21875 C 3.734375 -9.019531 3.382812 -8.738281 3.09375 -8.375 C 2.8125 -8.007812 2.59375 -7.5625 2.4375 -7.03125 C 2.28125 -6.507812 2.203125 -5.925781 2.203125 -5.28125 C 2.203125 -4.613281 2.28125 -4.015625 2.4375 -3.484375 C 2.59375 -2.960938 2.804688 -2.515625 3.078125 -2.140625 C 3.359375 -1.765625 3.695312 -1.472656 4.09375 -1.265625 C 4.5 -1.066406 4.953125 -0.96875 5.453125 -0.96875 C 5.960938 -0.96875 6.410156 -1.070312 6.796875 -1.28125 C 7.179688 -1.488281 7.546875 -1.78125 7.890625 -2.15625 L 8.625 -1.328125 C 8.207031 -0.847656 7.738281 -0.472656 7.21875 -0.203125 C 6.695312 0.0546875 6.09375 0.1875 5.40625 0.1875 Z M 5.40625 0.1875 "/></g></g></g><g fill="#000000" fill-opacity="1"><g transform="translate(341.562782, 184.958126)"><g><path d="M 1.4375 0 L 1.4375 -10.5 L 2.765625 -10.5 L 2.765625 -6.09375 L 7.640625 -6.09375 L 7.640625 -10.5 L 8.984375 -10.5 L 8.984375 0 L 7.640625 0 L 7.640625 -4.9375 L 2.765625 -4.9375 L 2.765625 0 Z M 1.4375 0 "/></g></g></g><g fill="#000000" fill-opacity="1"><g transform="translate(351.991292, 184.958126)"><g><path d="M 1.4375 0 L 1.4375 -10.5 L 4.71875 -10.5 C 5.25 -10.5 5.738281 -10.445312 6.1875 -10.34375 C 6.644531 -10.238281 7.035156 -10.066406 7.359375 -9.828125 C 7.691406 -9.597656 7.945312 -9.296875 8.125 -8.921875 C 8.3125 -8.554688 8.40625 -8.097656 8.40625 -7.546875 C 8.40625 -6.722656 8.191406 -6.066406 7.765625 -5.578125 C 7.335938 -5.085938 6.757812 -4.753906 6.03125 -4.578125 L 8.703125 0 L 7.203125 0 L 4.671875 -4.4375 L 2.765625 -4.4375 L 2.765625 0 Z M 2.765625 -5.515625 L 4.53125 -5.515625 C 5.351562 -5.515625 5.984375 -5.679688 6.421875 -6.015625 C 6.859375 -6.359375 7.078125 -6.867188 7.078125 -7.546875 C 7.078125 -8.242188 6.859375 -8.726562 6.421875 -9 C 5.984375 -9.28125 5.351562 -9.421875 4.53125 -9.421875 L 2.765625 -9.421875 Z M 2.765625 -5.515625 "/></g></g></g><g fill="#000000" fill-opacity="1"><g transform="translate(361.092246, 184.958126)"><g><path d="M 5.3125 0.1875 C 4.644531 0.1875 4.035156 0.0625 3.484375 -0.1875 C 2.941406 -0.445312 2.472656 -0.8125 2.078125 -1.28125 C 1.679688 -1.757812 1.375 -2.335938 1.15625 -3.015625 C 0.9375 -3.691406 0.828125 -4.453125 0.828125 -5.296875 C 0.828125 -6.140625 0.9375 -6.894531 1.15625 -7.5625 C 1.375 -8.226562 1.679688 -8.789062 2.078125 -9.25 C 2.472656 -9.71875 2.941406 -10.070312 3.484375 -10.3125 C 4.035156 -10.5625 4.644531 -10.6875 5.3125 -10.6875 C 5.96875 -10.6875 6.570312 -10.5625 7.125 -10.3125 C 7.675781 -10.0625 8.148438 -9.703125 8.546875 -9.234375 C 8.953125 -8.773438 9.265625 -8.210938 9.484375 -7.546875 C 9.703125 -6.878906 9.8125 -6.128906 9.8125 -5.296875 C 9.8125 -4.453125 9.703125 -3.691406 9.484375 -3.015625 C 9.265625 -2.335938 8.953125 -1.757812 8.546875 -1.28125 C 8.148438 -0.8125 7.675781 -0.445312 7.125 -0.1875 C 6.570312 0.0625 5.96875 0.1875 5.3125 0.1875 Z M 5.3125 -0.96875 C 5.78125 -0.96875 6.203125 -1.066406 6.578125 -1.265625 C 6.960938 -1.472656 7.289062 -1.765625 7.5625 -2.140625 C 7.832031 -2.523438 8.039062 -2.976562 8.1875 -3.5 C 8.34375 -4.03125 8.421875 -4.628906 8.421875 -5.296875 C 8.421875 -5.941406 8.34375 -6.523438 8.1875 -7.046875 C 8.039062 -7.578125 7.832031 -8.019531 7.5625 -8.375 C 7.289062 -8.738281 6.960938 -9.019531 6.578125 -9.21875 C 6.203125 -9.414062 5.78125 -9.515625 5.3125 -9.515625 C 4.84375 -9.515625 4.414062 -9.414062 4.03125 -9.21875 C 3.65625 -9.019531 3.332031 -8.738281 3.0625 -8.375 C 2.789062 -8.019531 2.578125 -7.578125 2.421875 -7.046875 C 2.273438 -6.523438 2.203125 -5.941406 2.203125 -5.296875 C 2.203125 -4.628906 2.273438 -4.03125 2.421875 -3.5 C 2.578125 -2.976562 2.789062 -2.523438 3.0625 -2.140625 C 3.332031 -1.765625 3.65625 -1.472656 4.03125 -1.265625 C 4.414062 -1.066406 4.84375 -0.96875 5.3125 -0.96875 Z M 5.3125 -0.96875 "/></g></g></g><g fill="#000000" fill-opacity="1"><g transform="translate(371.71268, 184.958126)"><g><path d="M 1.4375 0 L 1.4375 -10.5 L 2.8125 -10.5 L 6.609375 -3.90625 L 7.75 -1.734375 L 7.8125 -1.734375 C 7.78125 -2.265625 7.742188 -2.8125 7.703125 -3.375 C 7.660156 -3.945312 7.640625 -4.515625 7.640625 -5.078125 L 7.640625 -10.5 L 8.90625 -10.5 L 8.90625 0 L 7.53125 0 L 3.734375 -6.609375 L 2.59375 -8.765625 L 2.53125 -8.765625 C 2.570312 -8.234375 2.609375 -7.691406 2.640625 -7.140625 C 2.679688 -6.585938 2.703125 -6.035156 2.703125 -5.484375 L 2.703125 0 Z M 1.4375 0 "/></g></g></g><g fill="#000000" fill-opacity="1"><g transform="translate(382.061207, 184.958126)"><g><path d="M 5.3125 0.1875 C 4.644531 0.1875 4.035156 0.0625 3.484375 -0.1875 C 2.941406 -0.445312 2.472656 -0.8125 2.078125 -1.28125 C 1.679688 -1.757812 1.375 -2.335938 1.15625 -3.015625 C 0.9375 -3.691406 0.828125 -4.453125 0.828125 -5.296875 C 0.828125 -6.140625 0.9375 -6.894531 1.15625 -7.5625 C 1.375 -8.226562 1.679688 -8.789062 2.078125 -9.25 C 2.472656 -9.71875 2.941406 -10.070312 3.484375 -10.3125 C 4.035156 -10.5625 4.644531 -10.6875 5.3125 -10.6875 C 5.96875 -10.6875 6.570312 -10.5625 7.125 -10.3125 C 7.675781 -10.0625 8.148438 -9.703125 8.546875 -9.234375 C 8.953125 -8.773438 9.265625 -8.210938 9.484375 -7.546875 C 9.703125 -6.878906 9.8125 -6.128906 9.8125 -5.296875 C 9.8125 -4.453125 9.703125 -3.691406 9.484375 -3.015625 C 9.265625 -2.335938 8.953125 -1.757812 8.546875 -1.28125 C 8.148438 -0.8125 7.675781 -0.445312 7.125 -0.1875 C 6.570312 0.0625 5.96875 0.1875 5.3125 0.1875 Z M 5.3125 -0.96875 C 5.78125 -0.96875 6.203125 -1.066406 6.578125 -1.265625 C 6.960938 -1.472656 7.289062 -1.765625 7.5625 -2.140625 C 7.832031 -2.523438 8.039062 -2.976562 8.1875 -3.5 C 8.34375 -4.03125 8.421875 -4.628906 8.421875 -5.296875 C 8.421875 -5.941406 8.34375 -6.523438 8.1875 -7.046875 C 8.039062 -7.578125 7.832031 -8.019531 7.5625 -8.375 C 7.289062 -8.738281 6.960938 -9.019531 6.578125 -9.21875 C 6.203125 -9.414062 5.78125 -9.515625 5.3125 -9.515625 C 4.84375 -9.515625 4.414062 -9.414062 4.03125 -9.21875 C 3.65625 -9.019531 3.332031 -8.738281 3.0625 -8.375 C 2.789062 -8.019531 2.578125 -7.578125 2.421875 -7.046875 C 2.273438 -6.523438 2.203125 -5.941406 2.203125 -5.296875 C 2.203125 -4.628906 2.273438 -4.03125 2.421875 -3.5 C 2.578125 -2.976562 2.789062 -2.523438 3.0625 -2.140625 C 3.332031 -1.765625 3.65625 -1.472656 4.03125 -1.265625 C 4.414062 -1.066406 4.84375 -0.96875 5.3125 -0.96875 Z M 5.3125 -0.96875 "/></g></g></g><g fill="#000000" fill-opacity="1"><g transform="translate(392.681641, 184.958126)"><g><path d="M 5.171875 0.1875 C 4.640625 0.1875 4.140625 0.113281 3.671875 -0.03125 C 3.203125 -0.1875 2.800781 -0.441406 2.46875 -0.796875 C 2.132812 -1.160156 1.867188 -1.628906 1.671875 -2.203125 C 1.484375 -2.785156 1.390625 -3.5 1.390625 -4.34375 L 1.390625 -10.5 L 2.71875 -10.5 L 2.71875 -4.296875 C 2.71875 -3.671875 2.78125 -3.144531 2.90625 -2.71875 C 3.039062 -2.289062 3.21875 -1.945312 3.4375 -1.6875 C 3.65625 -1.4375 3.910156 -1.253906 4.203125 -1.140625 C 4.503906 -1.023438 4.828125 -0.96875 5.171875 -0.96875 C 5.523438 -0.96875 5.847656 -1.023438 6.140625 -1.140625 C 6.441406 -1.253906 6.703125 -1.4375 6.921875 -1.6875 C 7.148438 -1.945312 7.328125 -2.289062 7.453125 -2.71875 C 7.578125 -3.144531 7.640625 -3.671875 7.640625 -4.296875 L 7.640625 -10.5 L 8.921875 -10.5 L 8.921875 -4.34375 C 8.921875 -3.5 8.828125 -2.785156 8.640625 -2.203125 C 8.453125 -1.628906 8.1875 -1.160156 7.84375 -0.796875 C 7.507812 -0.441406 7.113281 -0.1875 6.65625 -0.03125 C 6.195312 0.113281 5.703125 0.1875 5.171875 0.1875 Z M 5.171875 0.1875 "/></g></g></g><g fill="#000000" fill-opacity="1"><g transform="translate(402.998176, 184.958126)"><g><path d="M 4.359375 0.1875 C 3.617188 0.1875 2.929688 0.0507812 2.296875 -0.21875 C 1.671875 -0.5 1.128906 -0.878906 0.671875 -1.359375 L 1.46875 -2.28125 C 1.84375 -1.894531 2.28125 -1.578125 2.78125 -1.328125 C 3.289062 -1.085938 3.820312 -0.96875 4.375 -0.96875 C 5.0625 -0.96875 5.597656 -1.125 5.984375 -1.4375 C 6.367188 -1.757812 6.5625 -2.175781 6.5625 -2.6875 C 6.5625 -2.957031 6.515625 -3.179688 6.421875 -3.359375 C 6.328125 -3.546875 6.203125 -3.707031 6.046875 -3.84375 C 5.898438 -3.976562 5.71875 -4.097656 5.5 -4.203125 C 5.289062 -4.316406 5.0625 -4.429688 4.8125 -4.546875 L 3.3125 -5.203125 C 3.0625 -5.304688 2.804688 -5.429688 2.546875 -5.578125 C 2.296875 -5.734375 2.066406 -5.914062 1.859375 -6.125 C 1.660156 -6.34375 1.5 -6.597656 1.375 -6.890625 C 1.25 -7.179688 1.1875 -7.519531 1.1875 -7.90625 C 1.1875 -8.300781 1.269531 -8.664062 1.4375 -9 C 1.601562 -9.34375 1.832031 -9.640625 2.125 -9.890625 C 2.414062 -10.140625 2.757812 -10.332031 3.15625 -10.46875 C 3.5625 -10.613281 4.003906 -10.6875 4.484375 -10.6875 C 5.109375 -10.6875 5.6875 -10.566406 6.21875 -10.328125 C 6.757812 -10.085938 7.210938 -9.773438 7.578125 -9.390625 L 6.859375 -8.53125 C 6.546875 -8.832031 6.191406 -9.070312 5.796875 -9.25 C 5.410156 -9.425781 4.972656 -9.515625 4.484375 -9.515625 C 3.890625 -9.515625 3.414062 -9.378906 3.0625 -9.109375 C 2.707031 -8.835938 2.53125 -8.460938 2.53125 -7.984375 C 2.53125 -7.722656 2.578125 -7.503906 2.671875 -7.328125 C 2.773438 -7.160156 2.910156 -7.007812 3.078125 -6.875 C 3.253906 -6.738281 3.441406 -6.617188 3.640625 -6.515625 C 3.847656 -6.421875 4.054688 -6.328125 4.265625 -6.234375 L 5.765625 -5.59375 C 6.054688 -5.46875 6.335938 -5.320312 6.609375 -5.15625 C 6.878906 -4.988281 7.109375 -4.796875 7.296875 -4.578125 C 7.484375 -4.359375 7.632812 -4.101562 7.75 -3.8125 C 7.863281 -3.519531 7.921875 -3.179688 7.921875 -2.796875 C 7.921875 -2.378906 7.835938 -1.988281 7.671875 -1.625 C 7.503906 -1.269531 7.265625 -0.953125 6.953125 -0.671875 C 6.648438 -0.398438 6.28125 -0.1875 5.84375 -0.03125 C 5.40625 0.113281 4.910156 0.1875 4.359375 0.1875 Z M 4.359375 0.1875 "/></g></g></g><g fill="#000000" fill-opacity="1"><g transform="translate(411.53932, 184.958126)"><g/></g></g><g fill="#000000" fill-opacity="1"><g transform="translate(414.738245, 184.958126)"><g><path d="M 1.4375 0 L 1.4375 -10.5 L 4.71875 -10.5 C 5.25 -10.5 5.738281 -10.445312 6.1875 -10.34375 C 6.644531 -10.238281 7.035156 -10.066406 7.359375 -9.828125 C 7.691406 -9.597656 7.945312 -9.296875 8.125 -8.921875 C 8.3125 -8.554688 8.40625 -8.097656 8.40625 -7.546875 C 8.40625 -6.722656 8.191406 -6.066406 7.765625 -5.578125 C 7.335938 -5.085938 6.757812 -4.753906 6.03125 -4.578125 L 8.703125 0 L 7.203125 0 L 4.671875 -4.4375 L 2.765625 -4.4375 L 2.765625 0 Z M 2.765625 -5.515625 L 4.53125 -5.515625 C 5.351562 -5.515625 5.984375 -5.679688 6.421875 -6.015625 C 6.859375 -6.359375 7.078125 -6.867188 7.078125 -7.546875 C 7.078125 -8.242188 6.859375 -8.726562 6.421875 -9 C 5.984375 -9.28125 5.351562 -9.421875 4.53125 -9.421875 L 2.765625 -9.421875 Z M 2.765625 -5.515625 "/></g></g></g><g fill="#000000" fill-opacity="1"><g transform="translate(423.839199, 184.958126)"><g><path d="M 1.4375 0 L 1.4375 -10.5 L 7.484375 -10.5 L 7.484375 -9.375 L 2.765625 -9.375 L 2.765625 -6.078125 L 6.75 -6.078125 L 6.75 -4.9375 L 2.765625 -4.9375 L 2.765625 -1.140625 L 7.640625 -1.140625 L 7.640625 0 Z M 1.4375 0 "/></g></g></g><g fill="#000000" fill-opacity="1"><g transform="translate(432.268368, 184.958126)"><g><path d="M 5.3125 -0.90625 C 5.78125 -0.90625 6.203125 -1.003906 6.578125 -1.203125 C 6.960938 -1.410156 7.289062 -1.707031 7.5625 -2.09375 C 7.832031 -2.476562 8.039062 -2.9375 8.1875 -3.46875 C 8.34375 -4.007812 8.421875 -4.617188 8.421875 -5.296875 C 8.421875 -5.941406 8.34375 -6.523438 8.1875 -7.046875 C 8.039062 -7.578125 7.832031 -8.019531 7.5625 -8.375 C 7.289062 -8.738281 6.960938 -9.019531 6.578125 -9.21875 C 6.203125 -9.414062 5.78125 -9.515625 5.3125 -9.515625 C 4.84375 -9.515625 4.414062 -9.414062 4.03125 -9.21875 C 3.65625 -9.019531 3.332031 -8.738281 3.0625 -8.375 C 2.789062 -8.019531 2.578125 -7.578125 2.421875 -7.046875 C 2.273438 -6.523438 2.203125 -5.941406 2.203125 -5.296875 C 2.203125 -4.617188 2.273438 -4.007812 2.421875 -3.46875 C 2.578125 -2.9375 2.789062 -2.476562 3.0625 -2.09375 C 3.332031 -1.707031 3.65625 -1.410156 4.03125 -1.203125 C 4.414062 -1.003906 4.84375 -0.90625 5.3125 -0.90625 Z M 8.53125 2.640625 C 8.050781 2.640625 7.601562 2.578125 7.1875 2.453125 C 6.78125 2.328125 6.410156 2.148438 6.078125 1.921875 C 5.753906 1.703125 5.472656 1.441406 5.234375 1.140625 C 4.992188 0.835938 4.800781 0.503906 4.65625 0.140625 C 4.082031 0.0664062 3.5625 -0.109375 3.09375 -0.390625 C 2.625 -0.679688 2.21875 -1.0625 1.875 -1.53125 C 1.539062 -2 1.28125 -2.550781 1.09375 -3.1875 C 0.914062 -3.820312 0.828125 -4.523438 0.828125 -5.296875 C 0.828125 -6.140625 0.9375 -6.894531 1.15625 -7.5625 C 1.375 -8.226562 1.679688 -8.789062 2.078125 -9.25 C 2.472656 -9.71875 2.941406 -10.070312 3.484375 -10.3125 C 4.035156 -10.5625 4.644531 -10.6875 5.3125 -10.6875 C 5.96875 -10.6875 6.570312 -10.5625 7.125 -10.3125 C 7.675781 -10.0625 8.148438 -9.703125 8.546875 -9.234375 C 8.953125 -8.773438 9.265625 -8.210938 9.484375 -7.546875 C 9.703125 -6.878906 9.8125 -6.128906 9.8125 -5.296875 C 9.8125 -4.535156 9.722656 -3.84375 9.546875 -3.21875 C 9.367188 -2.59375 9.113281 -2.046875 8.78125 -1.578125 C 8.457031 -1.117188 8.066406 -0.742188 7.609375 -0.453125 C 7.148438 -0.160156 6.644531 0.03125 6.09375 0.125 C 6.34375 0.59375 6.691406 0.941406 7.140625 1.171875 C 7.585938 1.398438 8.097656 1.515625 8.671875 1.515625 C 8.910156 1.515625 9.113281 1.5 9.28125 1.46875 C 9.457031 1.445312 9.625 1.414062 9.78125 1.375 L 10.03125 2.40625 C 9.875 2.46875 9.660156 2.519531 9.390625 2.5625 C 9.117188 2.613281 8.832031 2.640625 8.53125 2.640625 Z M 8.53125 2.640625 "/></g></g></g><g fill="#000000" fill-opacity="1"><g transform="translate(442.888802, 184.958126)"><g><path d="M 5.171875 0.1875 C 4.640625 0.1875 4.140625 0.113281 3.671875 -0.03125 C 3.203125 -0.1875 2.800781 -0.441406 2.46875 -0.796875 C 2.132812 -1.160156 1.867188 -1.628906 1.671875 -2.203125 C 1.484375 -2.785156 1.390625 -3.5 1.390625 -4.34375 L 1.390625 -10.5 L 2.71875 -10.5 L 2.71875 -4.296875 C 2.71875 -3.671875 2.78125 -3.144531 2.90625 -2.71875 C 3.039062 -2.289062 3.21875 -1.945312 3.4375 -1.6875 C 3.65625 -1.4375 3.910156 -1.253906 4.203125 -1.140625 C 4.503906 -1.023438 4.828125 -0.96875 5.171875 -0.96875 C 5.523438 -0.96875 5.847656 -1.023438 6.140625 -1.140625 C 6.441406 -1.253906 6.703125 -1.4375 6.921875 -1.6875 C 7.148438 -1.945312 7.328125 -2.289062 7.453125 -2.71875 C 7.578125 -3.144531 7.640625 -3.671875 7.640625 -4.296875 L 7.640625 -10.5 L 8.921875 -10.5 L 8.921875 -4.34375 C 8.921875 -3.5 8.828125 -2.785156 8.640625 -2.203125 C 8.453125 -1.628906 8.1875 -1.160156 7.84375 -0.796875 C 7.507812 -0.441406 7.113281 -0.1875 6.65625 -0.03125 C 6.195312 0.113281 5.703125 0.1875 5.171875 0.1875 Z M 5.171875 0.1875 "/></g></g></g><g fill="#000000" fill-opacity="1"><g transform="translate(453.205336, 184.958126)"><g><path d="M 1.4375 0 L 1.4375 -10.5 L 7.484375 -10.5 L 7.484375 -9.375 L 2.765625 -9.375 L 2.765625 -6.078125 L 6.75 -6.078125 L 6.75 -4.9375 L 2.765625 -4.9375 L 2.765625 -1.140625 L 7.640625 -1.140625 L 7.640625 0 Z M 1.4375 0 "/></g></g></g><g fill="#000000" fill-opacity="1"><g transform="translate(461.634505, 184.958126)"><g><path d="M 4.359375 0.1875 C 3.617188 0.1875 2.929688 0.0507812 2.296875 -0.21875 C 1.671875 -0.5 1.128906 -0.878906 0.671875 -1.359375 L 1.46875 -2.28125 C 1.84375 -1.894531 2.28125 -1.578125 2.78125 -1.328125 C 3.289062 -1.085938 3.820312 -0.96875 4.375 -0.96875 C 5.0625 -0.96875 5.597656 -1.125 5.984375 -1.4375 C 6.367188 -1.757812 6.5625 -2.175781 6.5625 -2.6875 C 6.5625 -2.957031 6.515625 -3.179688 6.421875 -3.359375 C 6.328125 -3.546875 6.203125 -3.707031 6.046875 -3.84375 C 5.898438 -3.976562 5.71875 -4.097656 5.5 -4.203125 C 5.289062 -4.316406 5.0625 -4.429688 4.8125 -4.546875 L 3.3125 -5.203125 C 3.0625 -5.304688 2.804688 -5.429688 2.546875 -5.578125 C 2.296875 -5.734375 2.066406 -5.914062 1.859375 -6.125 C 1.660156 -6.34375 1.5 -6.597656 1.375 -6.890625 C 1.25 -7.179688 1.1875 -7.519531 1.1875 -7.90625 C 1.1875 -8.300781 1.269531 -8.664062 1.4375 -9 C 1.601562 -9.34375 1.832031 -9.640625 2.125 -9.890625 C 2.414062 -10.140625 2.757812 -10.332031 3.15625 -10.46875 C 3.5625 -10.613281 4.003906 -10.6875 4.484375 -10.6875 C 5.109375 -10.6875 5.6875 -10.566406 6.21875 -10.328125 C 6.757812 -10.085938 7.210938 -9.773438 7.578125 -9.390625 L 6.859375 -8.53125 C 6.546875 -8.832031 6.191406 -9.070312 5.796875 -9.25 C 5.410156 -9.425781 4.972656 -9.515625 4.484375 -9.515625 C 3.890625 -9.515625 3.414062 -9.378906 3.0625 -9.109375 C 2.707031 -8.835938 2.53125 -8.460938 2.53125 -7.984375 C 2.53125 -7.722656 2.578125 -7.503906 2.671875 -7.328125 C 2.773438 -7.160156 2.910156 -7.007812 3.078125 -6.875 C 3.253906 -6.738281 3.441406 -6.617188 3.640625 -6.515625 C 3.847656 -6.421875 4.054688 -6.328125 4.265625 -6.234375 L 5.765625 -5.59375 C 6.054688 -5.46875 6.335938 -5.320312 6.609375 -5.15625 C 6.878906 -4.988281 7.109375 -4.796875 7.296875 -4.578125 C 7.484375 -4.359375 7.632812 -4.101562 7.75 -3.8125 C 7.863281 -3.519531 7.921875 -3.179688 7.921875 -2.796875 C 7.921875 -2.378906 7.835938 -1.988281 7.671875 -1.625 C 7.503906 -1.269531 7.265625 -0.953125 6.953125 -0.671875 C 6.648438 -0.398438 6.28125 -0.1875 5.84375 -0.03125 C 5.40625 0.113281 4.910156 0.1875 4.359375 0.1875 Z M 4.359375 0.1875 "/></g></g></g><g fill="#000000" fill-opacity="1"><g transform="translate(470.175649, 184.958126)"><g><path d="M 3.609375 0 L 3.609375 -9.375 L 0.453125 -9.375 L 0.453125 -10.5 L 8.125 -10.5 L 8.125 -9.375 L 4.953125 -9.375 L 4.953125 0 Z M 3.609375 0 "/></g></g></g><g fill="#000000" fill-opacity="1"><g transform="translate(478.748769, 184.958126)"><g><path d="M 4.359375 0.1875 C 3.617188 0.1875 2.929688 0.0507812 2.296875 -0.21875 C 1.671875 -0.5 1.128906 -0.878906 0.671875 -1.359375 L 1.46875 -2.28125 C 1.84375 -1.894531 2.28125 -1.578125 2.78125 -1.328125 C 3.289062 -1.085938 3.820312 -0.96875 4.375 -0.96875 C 5.0625 -0.96875 5.597656 -1.125 5.984375 -1.4375 C 6.367188 -1.757812 6.5625 -2.175781 6.5625 -2.6875 C 6.5625 -2.957031 6.515625 -3.179688 6.421875 -3.359375 C 6.328125 -3.546875 6.203125 -3.707031 6.046875 -3.84375 C 5.898438 -3.976562 5.71875 -4.097656 5.5 -4.203125 C 5.289062 -4.316406 5.0625 -4.429688 4.8125 -4.546875 L 3.3125 -5.203125 C 3.0625 -5.304688 2.804688 -5.429688 2.546875 -5.578125 C 2.296875 -5.734375 2.066406 -5.914062 1.859375 -6.125 C 1.660156 -6.34375 1.5 -6.597656 1.375 -6.890625 C 1.25 -7.179688 1.1875 -7.519531 1.1875 -7.90625 C 1.1875 -8.300781 1.269531 -8.664062 1.4375 -9 C 1.601562 -9.34375 1.832031 -9.640625 2.125 -9.890625 C 2.414062 -10.140625 2.757812 -10.332031 3.15625 -10.46875 C 3.5625 -10.613281 4.003906 -10.6875 4.484375 -10.6875 C 5.109375 -10.6875 5.6875 -10.566406 6.21875 -10.328125 C 6.757812 -10.085938 7.210938 -9.773438 7.578125 -9.390625 L 6.859375 -8.53125 C 6.546875 -8.832031 6.191406 -9.070312 5.796875 -9.25 C 5.410156 -9.425781 4.972656 -9.515625 4.484375 -9.515625 C 3.890625 -9.515625 3.414062 -9.378906 3.0625 -9.109375 C 2.707031 -8.835938 2.53125 -8.460938 2.53125 -7.984375 C 2.53125 -7.722656 2.578125 -7.503906 2.671875 -7.328125 C 2.773438 -7.160156 2.910156 -7.007812 3.078125 -6.875 C 3.253906 -6.738281 3.441406 -6.617188 3.640625 -6.515625 C 3.847656 -6.421875 4.054688 -6.328125 4.265625 -6.234375 L 5.765625 -5.59375 C 6.054688 -5.46875 6.335938 -5.320312 6.609375 -5.15625 C 6.878906 -4.988281 7.109375 -4.796875 7.296875 -4.578125 C 7.484375 -4.359375 7.632812 -4.101562 7.75 -3.8125 C 7.863281 -3.519531 7.921875 -3.179688 7.921875 -2.796875 C 7.921875 -2.378906 7.835938 -1.988281 7.671875 -1.625 C 7.503906 -1.269531 7.265625 -0.953125 6.953125 -0.671875 C 6.648438 -0.398438 6.28125 -0.1875 5.84375 -0.03125 C 5.40625 0.113281 4.910156 0.1875 4.359375 0.1875 Z M 4.359375 0.1875 "/></g></g></g><g fill="#000000" fill-opacity="1"><g transform="translate(487.289913, 184.958126)"><g/></g></g><g fill="#000000" fill-opacity="1"><g transform="translate(490.488839, 184.958126)"><g><path d="M 1.4375 0 L 1.4375 -10.5 L 2.765625 -10.5 L 2.765625 0 Z M 1.4375 0 "/></g></g></g><g fill="#000000" fill-opacity="1"><g transform="translate(494.695425, 184.958126)"><g><path d="M 1.4375 0 L 1.4375 -10.5 L 2.8125 -10.5 L 6.609375 -3.90625 L 7.75 -1.734375 L 7.8125 -1.734375 C 7.78125 -2.265625 7.742188 -2.8125 7.703125 -3.375 C 7.660156 -3.945312 7.640625 -4.515625 7.640625 -5.078125 L 7.640625 -10.5 L 8.90625 -10.5 L 8.90625 0 L 7.53125 0 L 3.734375 -6.609375 L 2.59375 -8.765625 L 2.53125 -8.765625 C 2.570312 -8.234375 2.609375 -7.691406 2.640625 -7.140625 C 2.679688 -6.585938 2.703125 -6.035156 2.703125 -5.484375 L 2.703125 0 Z M 1.4375 0 "/></g></g></g><g fill="#000000" fill-opacity="1"><g transform="translate(505.043952, 184.958126)"><g/></g></g><g fill="#000000" fill-opacity="1"><g transform="translate(508.242878, 184.958126)"><g><path d="M 1.4375 0 L 1.4375 -10.5 L 2.8125 -10.5 L 6.609375 -3.90625 L 7.75 -1.734375 L 7.8125 -1.734375 C 7.78125 -2.265625 7.742188 -2.8125 7.703125 -3.375 C 7.660156 -3.945312 7.640625 -4.515625 7.640625 -5.078125 L 7.640625 -10.5 L 8.90625 -10.5 L 8.90625 0 L 7.53125 0 L 3.734375 -6.609375 L 2.59375 -8.765625 L 2.53125 -8.765625 C 2.570312 -8.234375 2.609375 -7.691406 2.640625 -7.140625 C 2.679688 -6.585938 2.703125 -6.035156 2.703125 -5.484375 L 2.703125 0 Z M 1.4375 0 "/></g></g></g><g fill="#000000" fill-opacity="1"><g transform="translate(518.591406, 184.958126)"><g><path d="M 5.3125 0.1875 C 4.644531 0.1875 4.035156 0.0625 3.484375 -0.1875 C 2.941406 -0.445312 2.472656 -0.8125 2.078125 -1.28125 C 1.679688 -1.757812 1.375 -2.335938 1.15625 -3.015625 C 0.9375 -3.691406 0.828125 -4.453125 0.828125 -5.296875 C 0.828125 -6.140625 0.9375 -6.894531 1.15625 -7.5625 C 1.375 -8.226562 1.679688 -8.789062 2.078125 -9.25 C 2.472656 -9.71875 2.941406 -10.070312 3.484375 -10.3125 C 4.035156 -10.5625 4.644531 -10.6875 5.3125 -10.6875 C 5.96875 -10.6875 6.570312 -10.5625 7.125 -10.3125 C 7.675781 -10.0625 8.148438 -9.703125 8.546875 -9.234375 C 8.953125 -8.773438 9.265625 -8.210938 9.484375 -7.546875 C 9.703125 -6.878906 9.8125 -6.128906 9.8125 -5.296875 C 9.8125 -4.453125 9.703125 -3.691406 9.484375 -3.015625 C 9.265625 -2.335938 8.953125 -1.757812 8.546875 -1.28125 C 8.148438 -0.8125 7.675781 -0.445312 7.125 -0.1875 C 6.570312 0.0625 5.96875 0.1875 5.3125 0.1875 Z M 5.3125 -0.96875 C 5.78125 -0.96875 6.203125 -1.066406 6.578125 -1.265625 C 6.960938 -1.472656 7.289062 -1.765625 7.5625 -2.140625 C 7.832031 -2.523438 8.039062 -2.976562 8.1875 -3.5 C 8.34375 -4.03125 8.421875 -4.628906 8.421875 -5.296875 C 8.421875 -5.941406 8.34375 -6.523438 8.1875 -7.046875 C 8.039062 -7.578125 7.832031 -8.019531 7.5625 -8.375 C 7.289062 -8.738281 6.960938 -9.019531 6.578125 -9.21875 C 6.203125 -9.414062 5.78125 -9.515625 5.3125 -9.515625 C 4.84375 -9.515625 4.414062 -9.414062 4.03125 -9.21875 C 3.65625 -9.019531 3.332031 -8.738281 3.0625 -8.375 C 2.789062 -8.019531 2.578125 -7.578125 2.421875 -7.046875 C 2.273438 -6.523438 2.203125 -5.941406 2.203125 -5.296875 C 2.203125 -4.628906 2.273438 -4.03125 2.421875 -3.5 C 2.578125 -2.976562 2.789062 -2.523438 3.0625 -2.140625 C 3.332031 -1.765625 3.65625 -1.472656 4.03125 -1.265625 C 4.414062 -1.066406 4.84375 -0.96875 5.3125 -0.96875 Z M 5.3125 -0.96875 "/></g></g></g><g fill="#000000" fill-opacity="1"><g transform="translate(529.211822, 184.958126)"><g><path d="M 1.4375 0 L 1.4375 -10.5 L 4.0625 -10.5 C 5.6875 -10.5 6.921875 -10.050781 7.765625 -9.15625 C 8.609375 -8.257812 9.03125 -6.972656 9.03125 -5.296875 C 9.03125 -4.460938 8.921875 -3.71875 8.703125 -3.0625 C 8.492188 -2.40625 8.179688 -1.847656 7.765625 -1.390625 C 7.347656 -0.941406 6.832031 -0.597656 6.21875 -0.359375 C 5.613281 -0.117188 4.914062 0 4.125 0 Z M 2.765625 -1.09375 L 3.96875 -1.09375 C 5.195312 -1.09375 6.113281 -1.457031 6.71875 -2.1875 C 7.332031 -2.925781 7.640625 -3.960938 7.640625 -5.296875 C 7.640625 -6.628906 7.332031 -7.644531 6.71875 -8.34375 C 6.113281 -9.050781 5.195312 -9.40625 3.96875 -9.40625 L 2.765625 -9.40625 Z M 2.765625 -1.09375 "/></g></g></g><g fill="#000000" fill-opacity="1"><g transform="translate(539.048547, 184.958126)"><g><path d="M 1.4375 0 L 1.4375 -10.5 L 7.484375 -10.5 L 7.484375 -9.375 L 2.765625 -9.375 L 2.765625 -6.078125 L 6.75 -6.078125 L 6.75 -4.9375 L 2.765625 -4.9375 L 2.765625 -1.140625 L 7.640625 -1.140625 L 7.640625 0 Z M 1.4375 0 "/></g></g></g><g fill="#000000" fill-opacity="1"><g transform="translate(547.477716, 184.958126)"><g><path d="M 3.390625 0.1875 C 2.078125 0.1875 1.113281 -0.367188 0.5 -1.484375 L 1.453125 -2.15625 C 1.691406 -1.738281 1.957031 -1.4375 2.25 -1.25 C 2.550781 -1.0625 2.890625 -0.96875 3.265625 -0.96875 C 3.828125 -0.96875 4.242188 -1.140625 4.515625 -1.484375 C 4.796875 -1.835938 4.9375 -2.414062 4.9375 -3.21875 L 4.9375 -10.5 L 6.28125 -10.5 L 6.28125 -3.09375 C 6.28125 -2.644531 6.222656 -2.21875 6.109375 -1.8125 C 6.003906 -1.414062 5.835938 -1.066406 5.609375 -0.765625 C 5.378906 -0.460938 5.078125 -0.226562 4.703125 -0.0625 C 4.335938 0.101562 3.898438 0.1875 3.390625 0.1875 Z M 3.390625 0.1875 "/></g></g></g><g fill="#000000" fill-opacity="1"><g transform="translate(555.155151, 184.958126)"><g><path d="M 4.359375 0.1875 C 3.617188 0.1875 2.929688 0.0507812 2.296875 -0.21875 C 1.671875 -0.5 1.128906 -0.878906 0.671875 -1.359375 L 1.46875 -2.28125 C 1.84375 -1.894531 2.28125 -1.578125 2.78125 -1.328125 C 3.289062 -1.085938 3.820312 -0.96875 4.375 -0.96875 C 5.0625 -0.96875 5.597656 -1.125 5.984375 -1.4375 C 6.367188 -1.757812 6.5625 -2.175781 6.5625 -2.6875 C 6.5625 -2.957031 6.515625 -3.179688 6.421875 -3.359375 C 6.328125 -3.546875 6.203125 -3.707031 6.046875 -3.84375 C 5.898438 -3.976562 5.71875 -4.097656 5.5 -4.203125 C 5.289062 -4.316406 5.0625 -4.429688 4.8125 -4.546875 L 3.3125 -5.203125 C 3.0625 -5.304688 2.804688 -5.429688 2.546875 -5.578125 C 2.296875 -5.734375 2.066406 -5.914062 1.859375 -6.125 C 1.660156 -6.34375 1.5 -6.597656 1.375 -6.890625 C 1.25 -7.179688 1.1875 -7.519531 1.1875 -7.90625 C 1.1875 -8.300781 1.269531 -8.664062 1.4375 -9 C 1.601562 -9.34375 1.832031 -9.640625 2.125 -9.890625 C 2.414062 -10.140625 2.757812 -10.332031 3.15625 -10.46875 C 3.5625 -10.613281 4.003906 -10.6875 4.484375 -10.6875 C 5.109375 -10.6875 5.6875 -10.566406 6.21875 -10.328125 C 6.757812 -10.085938 7.210938 -9.773438 7.578125 -9.390625 L 6.859375 -8.53125 C 6.546875 -8.832031 6.191406 -9.070312 5.796875 -9.25 C 5.410156 -9.425781 4.972656 -9.515625 4.484375 -9.515625 C 3.890625 -9.515625 3.414062 -9.378906 3.0625 -9.109375 C 2.707031 -8.835938 2.53125 -8.460938 2.53125 -7.984375 C 2.53125 -7.722656 2.578125 -7.503906 2.671875 -7.328125 C 2.773438 -7.160156 2.910156 -7.007812 3.078125 -6.875 C 3.253906 -6.738281 3.441406 -6.617188 3.640625 -6.515625 C 3.847656 -6.421875 4.054688 -6.328125 4.265625 -6.234375 L 5.765625 -5.59375 C 6.054688 -5.46875 6.335938 -5.320312 6.609375 -5.15625 C 6.878906 -4.988281 7.109375 -4.796875 7.296875 -4.578125 C 7.484375 -4.359375 7.632812 -4.101562 7.75 -3.8125 C 7.863281 -3.519531 7.921875 -3.179688 7.921875 -2.796875 C 7.921875 -2.378906 7.835938 -1.988281 7.671875 -1.625 C 7.503906 -1.269531 7.265625 -0.953125 6.953125 -0.671875 C 6.648438 -0.398438 6.28125 -0.1875 5.84375 -0.03125 C 5.40625 0.113281 4.910156 0.1875 4.359375 0.1875 Z M 4.359375 0.1875 "/></g></g></g></svg>